<svg width="28" height="28" viewBox="0 0 28 28" fill="none" xmlns="http://www.w3.org/2000/svg">
<g clip-path="url(#clip0_42_422)">
<path d="M27.5898 14.0427C27.5898 6.54391 21.5054 0.464844 14 0.464844C6.49457 0.464844 0.410156 6.54391 0.410156 14.0427C0.410156 21.5415 6.49457 27.6206 14 27.6206C21.5054 27.6206 27.5898 21.5415 27.5898 14.0427Z" fill="#16073A"/>
<path d="M17.1875 14.0692L21.6949 9.56584C22.5757 8.68593 22.5757 7.25829 21.6949 6.37837C20.8152 5.49953 19.3899 5.49953 18.5102 6.37837L14 10.8848L9.48977 6.37837C8.61007 5.49953 7.18478 5.49953 6.30529 6.37837C5.42452 7.25829 5.42452 8.68593 6.30529 9.56584L10.8127 14.0692L6.30529 18.5728C5.42452 19.4527 5.42452 20.8802 6.30529 21.7601C7.18478 22.6389 8.61007 22.6389 9.48977 21.7601L14 17.2537L18.5102 21.7601C19.3899 22.6389 20.8152 22.6389 21.6947 21.7601C22.5755 20.8802 22.5755 19.4525 21.6947 18.5726L17.1875 14.0692Z" fill="#F4F2F9"/>
</g>
<defs>
<clipPath id="clip0_42_422">
<rect width="28" height="28" fill="white"/>
</clipPath>
</defs>
</svg>
