<svg width="28" height="28" viewBox="0 0 28 28" fill="none" xmlns="http://www.w3.org/2000/svg">
<g clip-path="url(#clip0_42_459)">
<path d="M27.5898 14.0427C27.5898 6.54391 21.5054 0.464844 14 0.464844C6.49457 0.464844 0.410156 6.54391 0.410156 14.0427C0.410156 21.5415 6.49457 27.6206 14 27.6206C21.5054 27.6206 27.5898 21.5415 27.5898 14.0427Z" fill="#3308A8"/>
<path d="M12.0535 20C11.4654 20 10.8992 19.7869 10.4751 19.4043L6.69274 15.992C5.79092 15.1782 5.76639 13.836 6.63799 12.9942C7.50968 12.1524 8.94718 12.1291 9.84964 12.943L11.9612 14.848L18.0601 8.68196C18.9109 7.82162 20.3479 7.76812 21.2695 8.5624C22.191 9.35667 22.2484 10.698 21.3974 11.5582L13.7222 19.3179C13.3076 19.7373 12.7293 19.9827 12.1182 19.9991C12.0967 19.9997 12.0751 20 12.0535 20V20Z" fill="white"/>
</g>
<defs>
<clipPath id="clip0_42_459">
<rect width="28" height="28" fill="white"/>
</clipPath>
</defs>
</svg>
