<svg width="486" height="523" fill="none" xmlns="http://www.w3.org/2000/svg"><g style="mix-blend-mode:multiply" filter="url(#filter0_i_42_244)"><path d="M456.31 168.221c16.397 0 29.69 16.431 29.69 36.699v181.601c0 20.269-13.293 36.7-29.69 36.7H85.69c-16.397 0-29.69-16.431-29.69-36.7V204.92c0-20.268 13.293-36.699 29.69-36.699h370.62z" fill="#16073A"/></g><mask id="a" style="mask-type:alpha" maskUnits="userSpaceOnUse" x="63" y="175" width="416" height="242"><path fill-rule="evenodd" clip-rule="evenodd" d="M479 202.213c0-14.908-9.634-26.992-21.517-26.992H84.517C72.634 175.221 63 187.305 63 202.213v187.016c0 14.907 9.634 26.992 21.517 26.992h372.966c11.883 0 21.517-12.085 21.517-26.992v-40.542c0-2.517-1.279-3.16-3.257-3.16-6.265 0-12.369-1.928-12.369-13.587v-72.438c0-11.66 6.104-13.588 12.369-13.588 1.978 0 3.257-.643 3.257-3.159v-40.542z" fill="#C4C4C4"/></mask><g clip-path="url(#clip0_42_244)" mask="url(#a)"><rect x="479" y="175.221" width="241" height="416" rx="4" transform="rotate(90 479 175.221)" fill="#fff"/><rect x="83" y="194.221" width="147" height="147" rx="16" fill="#F4F2F9"/><rect x="271" y="359.221" width="155" height="38" rx="10" fill="#D4C5F9"/><rect x="308" y="375.221" width="81" height="6" rx="3" fill="#F4F2F9"/><rect x="83" y="351.221" width="44" height="46" rx="10" fill="#F4F2F9"/><rect x="271" y="242.221" width="155" height="6" rx="3" fill="#F4F2F9"/><rect x="271" y="254.221" width="155" height="6" rx="3" fill="#F4F2F9"/><rect x="271" y="266.221" width="155" height="6" rx="3" fill="#F4F2F9"/><rect x="271" y="278.221" width="155" height="6" rx="3" fill="#F4F2F9"/><rect x="271" y="290.221" width="103" height="6" rx="3" fill="#F4F2F9"/><rect x="271" y="314.221" width="55" height="27" rx="13.5" fill="#F4F2F9"/><rect x="271" y="218.221" width="103" height="6" rx="3" fill="#F4F2F9"/><rect x="135" y="351.221" width="43" height="46" rx="10" fill="#F4F2F9"/><rect x="186" y="351.221" width="44" height="46" rx="10" fill="#F4F2F9"/></g><path d="M.012 136.338c.002 5.969.299 33.757.324 39.905.138 4.379.33 7.261.548 10.812.422 6.865.928 14.547 3.287 18.768 2.178 3.896 5.12 3.928 7.663 4.286 5.821.819 11.672-.325 17.494-.17 21.255.562 42.578-2.261 63.812-.648 1.682.128 3.355.24 5.04.237 5.903-.014 18.932 5.445 18.967-17.146.03-19.918.194-39.785.461-59.732.107-7.964.721-16.395-1.384-20.491-2.526-4.917-10.728-4.803-13.757-4.803-6.939 0-16.251.406-23.6 1.002-6.652.539-13.341.044-20.012.528-16.087 1.168-32.715-3.456-48.698.422-2.796.678-5.879.283-8.18 5.261C-.266 119.425.01 129.443.013 136.338z" fill="#16073A"/><path d="M1.239 130.205c.002 5.968.299 33.756.323 39.904.139 4.379.331 7.262.55 10.812.421 6.865.927 14.547 3.286 18.768 2.178 3.896 5.12 3.929 7.663 4.286 5.821.819 11.671-.324 17.494-.17 21.255.563 42.577-2.261 63.812-.648 1.682.128 3.355.241 5.039.237 5.904-.014 18.933 5.445 18.968-17.146.03-19.918.194-39.785.461-59.732.106-7.963.721-16.395-1.384-20.491-2.526-4.917-10.729-4.803-13.758-4.803-6.938 0-16.25.406-23.6 1.002-6.651.539-13.34.044-20.01.529-16.089 1.168-32.716-3.457-48.7.421-2.795.679-5.878.283-8.179 5.261-2.244 4.857-1.967 14.874-1.965 21.77z" fill="#fff" stroke="#16073A" stroke-width="2" stroke-miterlimit="1.5" stroke-linecap="round" stroke-linejoin="round"/><g clip-path="url(#clip1_42_244)"><path d="M50.517 122.688c-10.895 2.905-17.396 14.146-14.477 25.038 1.94 7.24 7.535 12.525 14.268 14.403a3.515 3.515 0 012.441 2.483l1.288 4.808c.17-.131.368-.232.588-.291l15.503-4.154c.22-.059.442-.07.654-.042l-1.288-4.808a3.553 3.553 0 01.901-3.401c4.872-4.992 7.063-12.351 5.127-19.578-2.92-10.893-14.11-17.362-25.005-14.458z" fill="#F4F2F9"/><path d="M57.967 163.214a3.515 3.515 0 00-2.441-2.483c-6.733-1.878-12.328-7.162-14.268-14.403-2.68-10.001 2.58-20.294 11.893-24.161-.877.115-1.756.287-2.634.521-10.895 2.905-17.396 14.146-14.477 25.038 1.94 7.24 7.535 12.525 14.268 14.403a3.515 3.515 0 012.441 2.483l1.288 4.808c.17-.131.368-.232.588-.291l4.597-1.231-1.255-4.684z" fill="#D4C5F9"/><path d="M68.516 134.881a14.207 14.207 0 00-9.568-6.823.98.98 0 11.379-1.923 16.166 16.166 0 0110.886 7.765.98.98 0 11-1.697.981z" fill="#FFEAC8"/><path d="M62.268 181.938l.186.694a3.97 3.97 0 004.847 2.799 3.97 3.97 0 002.799-4.848l-.186-.693-7.646 2.048z" fill="#3308A8"/><path d="M71.335 174.523l-12.98 3.478a1.703 1.703 0 00-1.203 2.083l.374 1.398a1.702 1.702 0 002.083 1.203l12.98-3.478a1.703 1.703 0 001.203-2.083l-.374-1.398a1.702 1.702 0 00-2.083-1.203z" fill="#F4F2F9"/><path d="M71.962 176.865l-12.98 3.478a1.702 1.702 0 01-1.887-.749c-.005.161.013.326.057.49l.374 1.398a1.702 1.702 0 002.083 1.203l12.98-3.478a1.703 1.703 0 001.203-2.083l-.374-1.398a1.689 1.689 0 00-.197-.453 1.704 1.704 0 01-1.259 1.592zM71.358 169.564l-15.504 4.155a1.702 1.702 0 00-1.202 2.082l.375 1.399a1.702 1.702 0 002.082 1.202l15.504-4.154a1.703 1.703 0 001.203-2.083l-.375-1.398a1.703 1.703 0 00-2.083-1.203z" fill="#F4F2F9"/><path d="M71.986 171.906l-15.504 4.154a1.703 1.703 0 01-1.887-.749c-.005.162.013.326.057.49l.375 1.399a1.703 1.703 0 002.082 1.202l15.504-4.154a1.703 1.703 0 001.203-2.083l-.375-1.398a1.689 1.689 0 00-.196-.453 1.703 1.703 0 01-1.26 1.592zM70.12 164.944l-15.504 4.154a1.703 1.703 0 00-1.202 2.083l.374 1.398a1.703 1.703 0 002.083 1.203l15.504-4.154a1.703 1.703 0 001.203-2.083l-.375-1.399a1.702 1.702 0 00-2.083-1.202z" fill="#F4F2F9"/><path d="M70.748 167.286l-15.504 4.154a1.704 1.704 0 01-1.887-.75c-.005.162.013.327.057.491l.374 1.398a1.703 1.703 0 002.083 1.203l15.504-4.155a1.702 1.702 0 001.203-2.082l-.375-1.399a1.703 1.703 0 00-.196-.453 1.704 1.704 0 01-1.26 1.593z" fill="#F4F2F9"/><path d="M59.294 126.13a.98.98 0 00-.378 1.924 14.204 14.204 0 019.568 6.823.98.98 0 101.697-.981 16.168 16.168 0 00-10.887-7.766z" fill="#16073A"/><path d="M52.849 123.191a19.407 19.407 0 0120.823 11.667.98.98 0 101.807-.76 21.482 21.482 0 00-9.25-10.343 21.48 21.48 0 00-13.675-2.502.981.981 0 00.295 1.938zM75.698 137.901a.982.982 0 00-.792 1.137c1.097 6.154-.863 12.508-5.244 16.998a4.555 4.555 0 00-1.147 4.338l1.002 3.737-4.007 1.074-2.016-7.526a2.055 2.055 0 01.088-1.318l.885-2.117c.34-.813.401-1.73.173-2.582l-1.834-6.845a.98.98 0 10-.507-1.893l-.028-.104a.98.98 0 00-1.893.508l.027.103-8.2 2.197-.027-.103a.98.98 0 00-1.893.507l.027.103a.981.981 0 00.508 1.894l1.834 6.845c.228.851.74 1.615 1.44 2.149l1.825 1.391c.358.273.62.663.736 1.097l2.017 7.526-4.007 1.074-1.001-3.738a4.513 4.513 0 00-3.125-3.173c-6.606-1.842-11.812-7.097-13.584-13.712-2.568-9.582 2.456-19.533 11.686-23.148a.98.98 0 00-.715-1.825 21.388 21.388 0 00-11.253 10.226 21.358 21.358 0 00-1.612 15.254c2.022 7.545 7.859 13.115 14.952 15.093a2.545 2.545 0 011.757 1.793l1.147 4.278a2.642 2.642 0 00-.45 2.282l.374 1.399c.164.61.53 1.113 1.006 1.457a2.636 2.636 0 00-.142 1.765l.374 1.398a2.647 2.647 0 002.053 1.911c-.035.318-.015.647.072.974l.375 1.398a2.652 2.652 0 003.243 1.873l1.728-.463a4.944 4.944 0 005.973 3.24 4.944 4.944 0 003.552-5.793l1.728-.463a2.65 2.65 0 001.872-3.243l-.374-1.398a2.625 2.625 0 00-.425-.879 2.65 2.65 0 00.823-2.682l-.375-1.398a2.634 2.634 0 00-1.005-1.457c.24-.537.305-1.155.142-1.765l-.375-1.399a2.643 2.643 0 00-1.531-1.751l-1.147-4.279a2.587 2.587 0 01.657-2.462c4.822-4.941 6.979-11.935 5.77-18.71a.98.98 0 00-1.136-.793zm-20.415 17.544a2.058 2.058 0 01-.736-1.098l-1.834-6.845 8.2-2.197 1.834 6.845c.116.435.085.903-.089 1.318l-.885 2.117a4.028 4.028 0 00-.173 2.582l2.017 7.526-3.052.817-2.017-7.526a4.023 4.023 0 00-1.44-2.148l-1.825-1.391zm11.732 29.035a2.982 2.982 0 01-3.568-1.855l5.73-1.536a2.982 2.982 0 01-2.162 3.391zm5.767-7.098a.688.688 0 01-.487.842l-12.98 3.479a.689.689 0 01-.843-.487l-.374-1.398a.689.689 0 01.486-.843l12.98-3.478a.689.689 0 01.843.487l.375 1.398zm.023-4.959a.69.69 0 01-.486.843l-15.504 4.154a.689.689 0 01-.842-.487l-.375-1.398a.688.688 0 01.487-.842l15.503-4.155a.689.689 0 01.843.487l.374 1.398zm-1.238-4.621a.689.689 0 01-.486.843l-15.504 4.154a.689.689 0 01-.842-.486l-.375-1.399a.693.693 0 01.486-.842l15.504-4.154a.692.692 0 01.843.486l.374 1.398z" fill="#16073A"/></g><path d="M148.998 450.938c1.547 5.765 9.026 32.529 10.641 38.461 1.267 4.195 2.199 6.929 3.328 10.302 2.184 6.522 4.662 13.811 8.032 17.277 3.113 3.201 5.962 2.47 8.512 2.157 5.834-.715 11.19-3.334 16.854-4.692 20.676-4.958 40.541-13.204 61.47-17.141 1.658-.312 3.302-.636 4.928-1.076 5.699-1.541 19.698.36 13.884-21.47a5034.075 5034.075 0 01-15.015-57.817c-1.958-7.719-3.546-16.022-6.639-19.434-3.713-4.096-11.607-1.863-14.532-1.079-6.702 1.796-15.593 4.598-22.537 7.076-6.285 2.243-12.875 3.496-19.192 5.69-15.238 5.292-32.495 5.128-46.93 13.011-2.526 1.379-5.606 1.795-6.54 7.199-.911 5.272 1.949 14.876 3.736 21.536z" fill="#16073A"/><path d="M148.595 444.696c1.547 5.764 9.026 32.528 10.641 38.461 1.267 4.194 2.199 6.928 3.329 10.301 2.184 6.522 4.661 13.811 8.032 17.278 3.112 3.2 5.961 2.47 8.511 2.157 5.835-.716 11.19-3.335 16.854-4.693 20.676-4.957 40.541-13.203 61.47-17.141 1.658-.312 3.303-.636 4.928-1.076 5.7-1.541 19.698.36 13.884-21.47a5049.356 5049.356 0 01-15.014-57.817c-1.958-7.719-3.547-16.022-6.64-19.434-3.713-4.096-11.606-1.863-14.532-1.079-6.702 1.796-15.592 4.599-22.537 7.076-6.285 2.243-12.875 3.496-19.192 5.69-15.238 5.292-32.495 5.129-46.93 13.011-2.525 1.379-5.605 1.795-6.539 7.199-.911 5.272 1.949 14.877 3.735 21.537z" fill="#fff" stroke="#16073A" stroke-width="2" stroke-miterlimit="1.5" stroke-linecap="round" stroke-linejoin="round"/><g clip-path="url(#clip2_42_244)" stroke="#16073A" stroke-width="1.5"><path d="M211.321 436.55l.581-.041.104-.573 1.58-8.703c.222-1.05 1.245-1.772 2.296-1.575h0l.012.002c1.053.181 1.755 1.235 1.528 2.251l-.004.015-.002.016-1.451 8.031-.133.735.735.136a21.126 21.126 0 018.482 3.615c.04.028.056.055.064.076a.165.165 0 01.008.088.222.222 0 01-.153.172l-32.12 11.467a.22.22 0 01-.227-.036.171.171 0 01-.05-.073.171.171 0 01.001-.099 21.138 21.138 0 014.276-8.17l.482-.57-.568-.485-6.21-5.297-.007-.007-.008-.006a1.887 1.887 0 01-.7-1.307 1.915 1.915 0 01.082-.752c.078-.243.204-.467.369-.66h.001l.004-.006c.689-.818 1.937-.908 2.774-.235l6.735 5.734.443.377.476-.336a21.031 21.031 0 015.045-2.607 21.03 21.03 0 015.555-1.177zm21.207 13.858h0a20.942 20.942 0 01-8.984 25.035c-.561.335-1.333.068-1.589-.648l-8.134-22.782a1.25 1.25 0 01.757-1.598l14.245-5.085c.52-.186 1.064-.009 1.339.398a20.918 20.918 0 012.366 4.68zm-39.443 14.082h0a20.902 20.902 0 01-1.132-5.121c-.046-.489.264-.97.784-1.156l14.244-5.085a1.25 1.25 0 011.598.757l8.133 22.781c.256.717-.173 1.412-.819 1.509a20.943 20.943 0 01-22.808-13.685z" fill="#F4F2F9"/><path d="M193.085 464.49v-.001a20.885 20.885 0 01-1.132-5.12c-.046-.489.264-.97.784-1.156l14.244-5.086a1.251 1.251 0 011.598.757l8.133 22.782c.256.717-.173 1.412-.819 1.508a20.942 20.942 0 01-22.808-13.684z" fill="#D4C5F9"/></g><path d="M350.08 33.605c-1.543 5.766-8.448 32.684-10.016 38.63-.999 4.265-1.56 7.099-2.268 10.585-1.369 6.74-2.869 14.291-1.683 18.979 1.095 4.327 3.928 5.119 6.293 6.123 5.411 2.298 11.358 2.708 16.942 4.364 20.385 6.044 41.712 8.836 61.805 15.89 1.592.559 3.178 1.1 4.806 1.532 5.707 1.515 16.879 10.161 22.759-11.652a5037.55 5037.55 0 0115.906-57.578c2.164-7.664 4.939-15.649 3.967-20.15-1.168-5.404-9.121-7.416-12.046-8.2-6.702-1.796-15.803-3.814-23.056-5.14-6.564-1.201-12.897-3.41-19.466-4.67-15.842-3.035-30.705-11.805-47.148-12.196-2.876-.068-5.752-1.248-9.262 2.964-3.425 4.11-5.751 13.859-7.533 20.52z" fill="#16073A"/><path d="M352.852 27.998c-1.543 5.766-8.448 32.684-10.015 38.629-1 4.266-1.56 7.1-2.268 10.585-1.37 6.74-2.869 14.292-1.683 18.98 1.095 4.327 3.928 5.119 6.292 6.123 5.411 2.297 11.358 2.707 16.943 4.363 20.385 6.045 41.711 8.836 61.805 15.891 1.591.558 3.178 1.1 4.806 1.532 5.706 1.515 16.878 10.16 22.759-11.652a5014.823 5014.823 0 0115.905-57.578c2.164-7.664 4.94-15.649 3.967-20.15-1.168-5.404-9.12-7.417-12.046-8.2-6.702-1.796-15.802-3.815-23.055-5.141-6.564-1.2-12.898-3.41-19.466-4.669-15.842-3.035-30.706-11.806-47.148-12.197-2.877-.068-5.752-1.248-9.263 2.965-3.425 4.11-5.75 13.858-7.533 20.519z" fill="#fff" stroke="#16073A" stroke-width="2" stroke-miterlimit="1.5" stroke-linecap="round" stroke-linejoin="round"/><g clip-path="url(#clip3_42_244)"><path d="M429.316 45.903l-39.13-10.485a3.173 3.173 0 00-3.886 2.244l-13.774 51.404a3.173 3.173 0 002.244 3.886l39.13 10.485a3.173 3.173 0 003.886-2.244l13.774-51.404a3.173 3.173 0 00-2.244-3.886z" fill="#F4F2F9"/><path d="M429.316 45.904l-3.397-.91-15.416 57.533 3.397.91a3.173 3.173 0 003.886-2.243l13.774-51.405a3.173 3.173 0 00-2.244-3.886z" fill="#D4C5F9"/><path d="M416.789 46.204l-15.905-4.261a1.887 1.887 0 01-1.334-2.31l.852-3.181a1.887 1.887 0 012.311-1.334l15.905 4.262a1.887 1.887 0 011.334 2.31l-.853 3.18a1.886 1.886 0 01-2.31 1.334z" fill="#F4F2F9"/><path d="M393.795 54.55l-4.087-1.095a1.605 1.605 0 01-1.135-1.965l1.096-4.087a1.604 1.604 0 011.964-1.135l4.088 1.096a1.603 1.603 0 011.134 1.964l-1.095 4.088a1.604 1.604 0 01-1.965 1.134zM389.666 69.963l-4.088-1.096a1.603 1.603 0 01-1.134-1.964l1.095-4.088a1.604 1.604 0 011.965-1.134l4.087 1.095a1.605 1.605 0 011.135 1.965l-1.096 4.087a1.604 1.604 0 01-1.964 1.135zM385.536 85.375l-4.088-1.095a1.604 1.604 0 01-1.134-1.965l1.095-4.087a1.604 1.604 0 011.965-1.135l4.087 1.096a1.605 1.605 0 011.135 1.964l-1.096 4.088a1.603 1.603 0 01-1.964 1.134z" fill="#3308A8"/><path d="M412.358 59.188l-9.988-2.676a.951.951 0 11.493-1.84l9.987 2.676a.953.953 0 01-.492 1.84zM423.61 57.143l-19.975-5.352a.951.951 0 11.493-1.84l19.975 5.353a.952.952 0 01-.493 1.84zM408.228 74.6l-9.988-2.676a.952.952 0 01.493-1.84l9.988 2.677a.952.952 0 01-.493 1.84zM419.48 72.556l-19.975-5.352a.952.952 0 01.493-1.84l19.975 5.352a.953.953 0 11-.493 1.84zM404.098 90.013l-9.988-2.676a.952.952 0 01.493-1.84l9.988 2.677a.952.952 0 01-.493 1.839zM415.351 87.969l-19.976-5.353a.952.952 0 01.493-1.84l19.976 5.353a.953.953 0 01-.493 1.84zM416.543 47.124l-15.905-4.262a2.842 2.842 0 01-2.008-3.477l.853-3.18a2.841 2.841 0 013.476-2.007l15.905 4.262a2.841 2.841 0 012.007 3.476l-.852 3.18a2.841 2.841 0 01-3.476 2.008zm-14.077-11.087a.935.935 0 00-1.144.66l-.852 3.181a.935.935 0 00.66 1.144l15.906 4.262a.936.936 0 001.144-.66l.852-3.18a.935.935 0 00-.661-1.145l-15.905-4.262zM393.549 55.47l-4.088-1.096a2.56 2.56 0 01-1.807-3.13l1.095-4.088a2.56 2.56 0 013.131-1.807l4.087 1.095a2.559 2.559 0 011.808 3.13l-1.095 4.088a2.56 2.56 0 01-3.131 1.808zm-2.162-8.282a.653.653 0 00-.799.461l-1.095 4.088a.653.653 0 00.461.798l4.088 1.096a.652.652 0 00.798-.462l1.096-4.087a.653.653 0 00-.461-.799l-4.088-1.095zM389.419 70.882l-4.087-1.095a2.559 2.559 0 01-1.808-3.13l1.095-4.088a2.56 2.56 0 013.131-1.808l4.088 1.095a2.56 2.56 0 011.807 3.131l-1.095 4.088a2.56 2.56 0 01-3.131 1.807zm-2.162-8.281a.652.652 0 00-.798.46l-1.096 4.088a.653.653 0 00.461.799l4.088 1.095a.654.654 0 00.799-.461l1.095-4.087a.653.653 0 00-.461-.8l-4.088-1.094zM385.289 86.295l-4.087-1.095a2.559 2.559 0 01-1.808-3.131l1.095-4.087a2.56 2.56 0 013.131-1.808l4.088 1.095a2.56 2.56 0 011.807 3.131l-1.095 4.087a2.56 2.56 0 01-3.131 1.808zm-2.162-8.282a.652.652 0 00-.798.462l-1.095 4.087a.652.652 0 00.461.799l4.087 1.095a.653.653 0 00.799-.461l1.095-4.088a.653.653 0 00-.461-.798l-4.088-1.096z" fill="#16073A"/><path d="M413.654 104.357l-39.131-10.485a4.13 4.13 0 01-2.917-5.052l13.774-51.405a4.13 4.13 0 015.052-2.916l5.511 1.476a.953.953 0 01-.492 1.84l-5.512-1.477a2.222 2.222 0 00-2.719 1.57l-13.774 51.405a2.223 2.223 0 001.57 2.72l39.131 10.484a2.222 2.222 0 002.719-1.57l13.774-51.404a2.223 2.223 0 00-1.57-2.72l-5.512-1.477a.952.952 0 01.493-1.839l5.512 1.477a4.129 4.129 0 012.916 5.051l-13.773 51.405a4.13 4.13 0 01-5.052 2.917z" fill="#16073A"/></g><defs><clipPath id="clip0_42_244"><rect x="479" y="175.221" width="241" height="416" rx="4" transform="rotate(90 479 175.221)" fill="#fff"/></clipPath><clipPath id="clip1_42_244"><path fill="#fff" transform="rotate(-15 504.646 -3.109)" d="M0 0h66.781v66.781H0z"/></clipPath><clipPath id="clip2_42_244"><path fill="#fff" transform="rotate(-19.647 1341.814 -274.2)" d="M0 0h65.071v65.071H0z"/></clipPath><clipPath id="clip3_42_244"><path fill="#fff" transform="rotate(15 83.732 1455.325)" d="M0 0h65v65H0z"/></clipPath><filter id="filter0_i_42_244" x="52" y="168.221" width="434" height="255" filterUnits="userSpaceOnUse" color-interpolation-filters="sRGB"><feFlood flood-opacity="0" result="BackgroundImageFix"/><feBlend in="SourceGraphic" in2="BackgroundImageFix" result="shape"/><feColorMatrix in="SourceAlpha" values="0 0 0 0 0 0 0 0 0 0 0 0 0 0 0 0 0 0 127 0" result="hardAlpha"/><feOffset dx="-4"/><feGaussianBlur stdDeviation="12"/><feComposite in2="hardAlpha" operator="arithmetic" k2="-1" k3="1"/><feColorMatrix values="0 0 0 0 1 0 0 0 0 1 0 0 0 0 1 0 0 0 0.16 0"/><feBlend in2="shape" result="effect1_innerShadow_42_244"/></filter></defs></svg>