<svg width="533" height="292" fill="none" xmlns="http://www.w3.org/2000/svg"><path d="M.025 78.902c.004 4.865.636 27.516.688 32.527.294 3.57.702 5.919 1.166 8.813.896 5.596 1.971 11.858 6.982 15.298 4.627 3.177 10.875 3.203 16.279 3.495 12.366.667 24.795-.265 37.165-.139 45.153.458 90.45-1.843 135.561-.528 3.573.104 7.126.196 10.704.193 12.542-.012 40.222 4.438 40.295-13.976.064-16.236.412-32.43.98-48.69.226-6.49 1.531-13.363-2.94-16.702-5.367-4.008-22.792-3.915-29.227-3.915-14.739 0-34.523.33-50.136.816-14.129.44-28.34.036-42.51.431-34.177.952-69.5-2.817-103.454.344-5.94.553-12.49.23-17.377 4.288C-.567 65.116.021 73.281.025 78.902z" fill="#16073A"/><path d="M3.51 73.624c.004 4.866.636 27.516.688 32.528.294 3.569.702 5.919 1.166 8.813.896 5.596 1.971 11.857 6.982 15.298 4.626 3.176 10.875 3.202 16.279 3.494 12.366.667 24.795-.265 37.165-.139 45.153.459 90.45-1.843 135.561-.528 3.573.104 7.126.196 10.704.193 12.542-.011 40.221 4.439 40.295-13.976.064-16.235.412-32.43.979-48.69.227-6.49 1.532-13.363-2.939-16.702C245.023 49.907 227.598 50 221.163 50c-14.739 0-34.523.331-50.136.817-14.129.44-28.341.036-42.51.43-34.178.953-69.5-2.817-103.454.344-5.94.553-12.49.23-17.377 4.288-4.768 3.96-4.18 12.125-4.176 17.745z" fill="#fff" stroke="#16073A" stroke-width="2" stroke-miterlimit="1.5" stroke-linecap="round" stroke-linejoin="round"/><path d="M142 6v49l-34-3.612V9.612L142 6z" fill="#3308A8"/><path d="M138.32 51.193l-3.632 10.899h3.632a3.644 3.644 0 003.633-3.633v-7.266h-3.633zM138.32 1.908h-3.632l3.632 7.266h3.633V5.54a3.644 3.644 0 00-3.633-3.633z" fill="#D4C5F9"/><path d="M138.32 51.193v7.266a3.643 3.643 0 01-3.632 3.633H111.68a3.644 3.644 0 01-3.633-3.633v-7.266h30.273zM138.32 5.541v3.633h-30.273V5.54a3.644 3.644 0 013.633-3.633h23.008a3.643 3.643 0 013.632 3.633z" fill="#F4F2F9"/><path d="M125 58.459a1.816 1.816 0 100-3.632 1.816 1.816 0 000 3.632z" fill="#F4F2F9"/><path d="M138.32 1h-26.64a4.546 4.546 0 00-4.541 4.541v52.918A4.546 4.546 0 00111.68 63h26.64a4.546 4.546 0 004.541-4.541V5.541A4.546 4.546 0 00138.32 1zm-26.64 1.816h26.64a2.728 2.728 0 012.725 2.725v2.725h-32.09V5.54a2.728 2.728 0 012.725-2.725zm26.64 58.368h-26.64a2.728 2.728 0 01-2.725-2.725v-6.357h2.725a.908.908 0 000-1.817h-2.725V10.082h32.09v40.203h-25.733a.908.908 0 000 1.817h25.733v6.357a2.728 2.728 0 01-2.725 2.725z" fill="#16073A"/><path d="M125 6.45h3.633a.908.908 0 000-1.817H125a.908.908 0 100 1.816zM125 53.918a2.728 2.728 0 00-2.725 2.725A2.728 2.728 0 00125 59.367a2.728 2.728 0 002.725-2.724A2.728 2.728 0 00125 53.918zm0 3.633a.909.909 0 11.002-1.818.909.909 0 01-.002 1.818zM121.367 6.45a.908.908 0 100-1.816.908.908 0 000 1.815zM79.487 86.752v10.56h-2v-5.504l.113-3.088h-.032l-2.928 8.592h-1.808L69.92 88.72h-.032l.111 3.088v5.504h-2v-10.56h3.2l1.904 5.76.672 2.384h.032l.689-2.368 1.888-5.776h3.103zm6.093 2.4c.81 0 1.52.166 2.128.496.618.331 1.099.806 1.44 1.424.352.619.528 1.366.528 2.24 0 .864-.176 1.611-.528 2.24a3.495 3.495 0 01-1.44 1.424c-.608.331-1.317.496-2.128.496-.8 0-1.51-.165-2.128-.496a3.598 3.598 0 01-1.456-1.424c-.341-.629-.512-1.376-.512-2.24 0-.874.17-1.621.512-2.24a3.596 3.596 0 011.456-1.424c.618-.33 1.328-.496 2.128-.496zm0 1.632c-.406 0-.752.096-1.04.288-.278.182-.49.459-.64.832-.15.374-.224.843-.224 1.408 0 .566.075 1.035.224 1.408.15.374.362.656.64.848.288.182.634.272 1.04.272.395 0 .73-.09 1.008-.272.288-.192.507-.474.656-.848.15-.373.224-.842.224-1.408 0-.565-.075-1.034-.224-1.408-.15-.373-.368-.65-.656-.832-.277-.192-.613-.288-1.008-.288zm10.634 6.688c-.49 0-.939-.101-1.344-.304a2.971 2.971 0 01-.992-.864 3.424 3.424 0 01-.528-1.248l.224-.288-.128 2.544H91.51V85.808h2.192v5.76l-.208-.336c.17-.597.496-1.093.976-1.488.48-.394 1.083-.592 1.808-.592.63 0 1.2.166 1.712.496.512.331.912.806 1.2 1.424.299.619.448 1.371.448 2.256 0 .864-.15 1.606-.448 2.224-.288.619-.693 1.094-1.216 1.424-.512.331-1.099.496-1.76.496zm-.656-1.68c.587 0 1.045-.208 1.376-.624.341-.426.512-1.045.512-1.856 0-.81-.165-1.424-.496-1.84-.33-.426-.79-.64-1.376-.64-.384 0-.715.102-.992.304-.277.203-.496.491-.656.864-.15.374-.224.816-.224 1.328 0 .523.075.971.224 1.344.16.363.379.64.656.832.288.192.613.288.976.288zm7.087-7.632c-.459 0-.8-.096-1.024-.288-.224-.202-.336-.496-.336-.88 0-.394.112-.688.336-.88.224-.202.565-.304 1.024-.304.459 0 .8.102 1.024.304.224.192.336.486.336.88 0 .384-.112.678-.336.88-.224.192-.565.288-1.024.288zm1.088 1.152v8h-2.192v-8h2.192zm4.484-3.504v9.04c0 .374.064.635.192.784.128.15.341.224.64.224.181 0 .33-.01.448-.032.117-.032.266-.074.448-.128l-.192 1.44a2.174 2.174 0 01-.688.24 3.424 3.424 0 01-.8.096c-.779 0-1.35-.186-1.712-.56-.352-.384-.528-.992-.528-1.824v-9.28h2.192zm6.661 11.664c-.843 0-1.579-.165-2.208-.496a3.491 3.491 0 01-1.44-1.424c-.341-.618-.512-1.365-.512-2.24 0-.874.171-1.621.512-2.24a3.518 3.518 0 011.424-1.424c.619-.33 1.323-.496 2.112-.496.811 0 1.499.166 2.064.496.565.32.997.763 1.296 1.328.299.555.448 1.19.448 1.904 0 .214-.005.416-.016.608a6.306 6.306 0 01-.048.512h-6.384v-1.52h5.424l-1.056.384c0-.672-.155-1.189-.464-1.552-.299-.362-.725-.544-1.28-.544-.405 0-.757.096-1.056.288-.288.192-.507.48-.656.864-.149.374-.224.848-.224 1.424 0 .566.08 1.035.24 1.408.171.363.405.635.704.816.309.182.677.272 1.104.272.469 0 .848-.09 1.136-.272a1.84 1.84 0 00.672-.752l1.744.672a2.77 2.77 0 01-.784 1.072 3.548 3.548 0 01-1.232.688c-.469.15-.976.224-1.52.224zm14.524-10.88c.96 0 1.803.166 2.528.496.726.331 1.344.822 1.856 1.472l-1.232 1.424c-.437-.554-.917-.96-1.44-1.216-.512-.266-1.109-.4-1.792-.4-.448 0-.821.059-1.12.176-.288.118-.501.272-.64.464a1.129 1.129 0 00-.192.64c0 .288.112.534.336.736.224.192.608.352 1.152.48l1.968.448c1.046.235 1.792.587 2.24 1.056.459.459.688 1.056.688 1.792 0 .694-.181 1.291-.544 1.792-.362.491-.869.87-1.52 1.136-.65.256-1.397.384-2.24.384a7.629 7.629 0 01-2.032-.256 6.341 6.341 0 01-1.632-.736c-.48-.309-.88-.666-1.2-1.072l1.248-1.488c.246.342.55.646.912.912.363.267.774.48 1.232.64.47.15.96.224 1.472.224.438 0 .806-.048 1.104-.144.31-.106.539-.25.688-.432.16-.192.24-.421.24-.688a.958.958 0 00-.288-.704c-.181-.202-.522-.357-1.024-.464l-2.144-.48a7 7 0 01-1.6-.576 2.75 2.75 0 01-1.008-.928c-.224-.384-.336-.837-.336-1.36 0-.629.171-1.194.512-1.696.342-.501.832-.896 1.472-1.184.651-.298 1.43-.448 2.336-.448zm9.049.272v7.84c0 .384.096.667.288.848.203.171.475.256.816.256.267 0 .502-.037.704-.112a2.02 2.02 0 00.544-.336l.352 1.456a2.894 2.894 0 01-.96.48 4.138 4.138 0 01-1.216.176c-.533 0-1.008-.08-1.424-.24a2.015 2.015 0 01-.96-.768c-.224-.352-.336-.821-.336-1.408v-7.584l2.192-.608zm2.56 2.448v1.632h-6.224v-1.632h6.224zm6.121 2.896c0-.458-.133-.816-.4-1.072-.256-.256-.597-.384-1.024-.384a1.81 1.81 0 00-1.04.304c-.298.203-.517.539-.656 1.008l-1.872-.576a2.902 2.902 0 011.184-1.696c.619-.426 1.446-.64 2.48-.64.704 0 1.318.112 1.84.336.523.214.928.539 1.216.976.299.438.448.987.448 1.648v3.248c0 .406.192.608.576.608.182 0 .352-.026.512-.08l-.128 1.36c-.277.139-.624.208-1.04.208-.373 0-.709-.064-1.008-.192a1.57 1.57 0 01-.704-.576c-.17-.266-.256-.597-.256-.992v-.064l.384-.064a1.84 1.84 0 01-.528 1.04c-.288.278-.64.491-1.056.64-.405.15-.826.224-1.264.224-.544 0-1.013-.08-1.408-.24a2.038 2.038 0 01-.912-.736c-.213-.32-.32-.714-.32-1.184 0-.597.192-1.082.576-1.456.384-.384.934-.645 1.648-.784l3.008-.608-.016 1.36-1.92.384c-.362.075-.64.176-.832.304-.181.118-.272.315-.272.592 0 .267.096.47.288.608.203.139.443.208.72.208.224 0 .443-.026.656-.08a1.75 1.75 0 00.576-.256 1.18 1.18 0 00.4-.48c.096-.202.144-.448.144-.736v-2.16zm4.628 5.104v-8h1.904l.144 1.568c.213-.554.523-.981.928-1.28.416-.298.933-.448 1.552-.448.181 0 .347.016.496.048.149.032.272.075.368.128l-.256 1.84a1.694 1.694 0 00-.4-.096 4.355 4.355 0 00-.592-.032c-.32 0-.629.08-.928.24-.299.15-.544.384-.736.704-.192.31-.288.704-.288 1.184v4.144h-2.192zm9.285-10.448v7.84c0 .384.096.667.288.848.203.171.475.256.816.256.267 0 .501-.037.704-.112a2.02 2.02 0 00.544-.336l.352 1.456a2.894 2.894 0 01-.96.48 4.138 4.138 0 01-1.216.176c-.533 0-1.008-.08-1.424-.24a2.015 2.015 0 01-.96-.768c-.224-.352-.336-.821-.336-1.408v-7.584l2.192-.608zm2.56 2.448v1.632h-6.224v-1.632h6.224zm4.267 8.16a3.474 3.474 0 01-1.44-.288 2.283 2.283 0 01-1.024-.912c-.245-.426-.368-.976-.368-1.648v-5.312h2.192v4.784c0 .619.128 1.051.384 1.296.256.235.624.352 1.104.352.224 0 .443-.037.656-.112.213-.085.4-.213.56-.384.171-.17.304-.389.4-.656.096-.277.144-.602.144-.976v-4.304h2.192v8h-1.952l-.08-1.392c-.267.534-.635.928-1.104 1.184-.459.246-1.013.368-1.664.368zm7.107 3.2v-11.36h1.968l.144 2.544-.272-.288c.096-.469.272-.885.528-1.248a2.76 2.76 0 011.008-.848c.405-.213.858-.32 1.36-.32.65 0 1.232.166 1.744.496.512.331.912.806 1.2 1.424.298.608.448 1.35.448 2.224 0 .875-.15 1.627-.448 2.256-.299.619-.71 1.094-1.232 1.424-.512.331-1.099.496-1.76.496-.704 0-1.291-.197-1.76-.592a3.002 3.002 0 01-.944-1.488l.208-.336v5.616h-2.192zm4.048-4.88c.586 0 1.045-.208 1.376-.624.341-.426.512-1.045.512-1.856 0-.81-.166-1.424-.496-1.84-.32-.426-.774-.64-1.36-.64a1.68 1.68 0 00-.992.304c-.278.192-.496.475-.656.848-.16.363-.24.806-.24 1.328 0 .512.074.955.224 1.328.149.374.362.662.64.864.288.192.618.288.992.288zm9.183 1.68c-.811 0-1.552-.144-2.224-.432a4.134 4.134 0 01-1.616-1.216l1.264-1.28c.256.384.597.699 1.024.944.427.246.933.368 1.52.368.416 0 .747-.058.992-.176.256-.128.384-.325.384-.592a.589.589 0 00-.176-.432c-.117-.128-.352-.229-.704-.304l-1.408-.288c-.928-.192-1.589-.48-1.984-.864-.384-.394-.576-.901-.576-1.52 0-.437.128-.848.384-1.232.267-.384.661-.693 1.184-.928.523-.245 1.173-.368 1.952-.368.8 0 1.493.128 2.08.384.597.246 1.067.614 1.408 1.104l-1.312 1.28a2.29 2.29 0 00-.928-.848 2.445 2.445 0 00-1.184-.304c-.299 0-.555.032-.768.096-.213.064-.373.155-.48.272a.561.561 0 00-.16.416c0 .171.075.32.224.448.149.118.421.219.816.304l1.632.336c.789.16 1.355.432 1.696.816.341.374.512.827.512 1.36 0 .512-.139.971-.416 1.376-.267.395-.667.71-1.2.944-.523.224-1.168.336-1.936.336zM278.025 78.902c.004 4.865.636 27.516.688 32.527.294 3.57.702 5.919 1.166 8.813.896 5.596 1.971 11.858 6.982 15.298 4.626 3.177 10.875 3.203 16.279 3.495 12.366.667 24.795-.265 37.165-.139 45.153.458 90.45-1.843 135.561-.528 3.573.104 7.126.196 10.704.193 12.542-.012 40.222 4.438 40.295-13.976.064-16.236.412-32.43.98-48.69.226-6.49 1.531-13.363-2.94-16.702-5.367-4.008-22.792-3.915-29.227-3.915-14.739 0-34.523.33-50.136.816-14.129.44-28.34.036-42.51.431-34.177.952-69.5-2.817-103.454.344-5.94.553-12.49.23-17.377 4.288-4.768 3.959-4.18 12.124-4.176 17.745z" fill="#16073A"/><path d="M281.51 73.624c.004 4.866.636 27.516.688 32.528.294 3.569.702 5.919 1.166 8.813.896 5.596 1.971 11.857 6.982 15.298 4.626 3.176 10.875 3.202 16.279 3.494 12.366.667 24.795-.265 37.165-.139 45.153.459 90.45-1.843 135.561-.528 3.573.104 7.126.196 10.704.193 12.542-.011 40.221 4.439 40.295-13.976.064-16.235.412-32.43.979-48.69.227-6.49 1.532-13.363-2.939-16.702C523.023 49.907 505.598 50 499.163 50c-14.739 0-34.523.331-50.136.817-14.129.44-28.341.036-42.51.43-34.178.953-69.5-2.817-103.455.344-5.94.553-12.489.23-17.376 4.288-4.768 3.96-4.18 12.125-4.176 17.745z" fill="#fff" stroke="#16073A" stroke-width="2" stroke-miterlimit="1.5" stroke-linecap="round" stroke-linejoin="round"/><g clip-path="url(#clip0_54_340)"><path d="M375.511 15.225l-.603 1.085v31.383a3.75 3.75 0 003.75 3.75h52.684a3.75 3.75 0 003.75-3.75V16.31l-.603-1.086h-58.978z" fill="#F4F2F9"/><path d="M428.952 15.225v26.328a3.75 3.75 0 01-3.75 3.75h-50.294v2.39a3.75 3.75 0 003.75 3.75h52.684a3.75 3.75 0 003.75-3.75V16.31l-.603-1.086h-5.537z" fill="#D4C5F9"/><path d="M431.342 5.962h-52.684a3.75 3.75 0 00-3.75 3.75v6.598h60.184V9.711a3.75 3.75 0 00-3.75-3.75z" fill="#3308A8"/><path d="M408.62 53.075l-4.53-4.53-2.786 2.787 4.53 4.53c.237.236.62.236.856 0l1.93-1.93a.605.605 0 000-.857z" fill="#F4F2F9"/><path d="M407.788 52.243l-1.098 1.099a.605.605 0 01-.856 0l-3.27-3.27-1.26 1.26 4.53 4.53c.237.236.62.236.856 0l1.931-1.93a.606.606 0 000-.857l-.833-.832z" fill="#D4C5F9"/><path d="M392.391 38.854l16.001 5.955a.484.484 0 01.173.796l-10.201 10.202a.485.485 0 01-.797-.174l-5.955-16a.606.606 0 01.779-.78z" fill="#F4F2F9"/><path d="M408.392 44.809l-2.084-.776-6.817 6.817a.484.484 0 01-.796-.174l-4.094-11-2.21-.822a.605.605 0 00-.778.778l5.955 16.001c.123.331.547.423.796.174l10.202-10.202a.485.485 0 00-.174-.796z" fill="#D4C5F9"/><path d="M419.039 50.534h-11.675l-1.222-1.221 3.066-3.066c.337-.337.477-.816.376-1.281a1.388 1.388 0 00-.875-1.008l-16.001-5.956a1.499 1.499 0 00-1.599.349 1.5 1.5 0 00-.348 1.598l3.94 10.585h-16.043a2.845 2.845 0 01-2.842-2.841V28.101a.908.908 0 10-1.816 0v19.592a4.663 4.663 0 004.658 4.658h16.719l1.339 3.599c.166.447.543.774 1.009.875.465.102.944-.039 1.281-.376l3.065-3.065 3.121 3.12a1.51 1.51 0 001.07.443c.388 0 .775-.148 1.071-.443l1.93-1.93c.59-.59.59-1.55 0-2.14l-.083-.083h9.859a.908.908 0 100-1.817zm-12.777 4.471l-3.548-3.548a.907.907 0 00-1.285 0l-3.241 3.24-5.494-14.761 14.762 5.494-3.241 3.24a.909.909 0 00.001 1.285l3.548 3.549-1.502 1.501z" fill="#16073A"/><path d="M431.342 5.053h-3.175a.909.909 0 100 1.817h3.175a2.845 2.845 0 012.842 2.841v5.69h-58.368v-5.69a2.845 2.845 0 012.842-2.841h45.308a.909.909 0 100-1.817h-45.308A4.664 4.664 0 00374 9.711v14.303a.908.908 0 001.816 0v-6.796h58.368v30.475a2.845 2.845 0 01-2.842 2.842h-7.951a.908.908 0 100 1.816h7.951A4.664 4.664 0 00436 47.693V9.711a4.664 4.664 0 00-4.658-4.658z" fill="#16073A"/><path d="M380.018 11.136a1.682 1.682 0 103.364 0 1.682 1.682 0 00-3.364 0zM385.193 11.136a1.682 1.682 0 103.364 0 1.682 1.682 0 00-3.364 0zM390.368 11.136a1.682 1.682 0 103.365 0 1.682 1.682 0 00-3.365 0zM385.117 37.213h.006a.909.909 0 00.855-.603l2.25-6.313 2.149 6.302a.909.909 0 00.856.614h.004a.908.908 0 00.857-.608l3.05-8.7a.91.91 0 00-1.715-.6l-2.181 6.221-2.142-6.28c-.243-.798-1.462-.806-1.715-.012l-2.253 6.322-2.143-6.236a.907.907 0 10-1.718.59l2.987 8.69c.125.365.467.611.853.613zM401.921 37.213h.005a.909.909 0 00.856-.603l2.25-6.313 2.149 6.302a.909.909 0 00.856.614h.004a.909.909 0 00.857-.608l3.049-8.7a.908.908 0 10-1.714-.6l-2.181 6.221-2.142-6.28c-.243-.798-1.462-.806-1.715-.012l-2.253 6.322-2.143-6.236a.908.908 0 10-1.718.59l2.986 8.69a.91.91 0 00.854.613zM418.453 37.213h.005a.908.908 0 00.855-.603l2.25-6.313 2.149 6.302a.909.909 0 00.856.614h.004a.908.908 0 00.857-.608l3.05-8.7a.91.91 0 00-1.715-.6l-2.181 6.221-2.142-6.28c-.243-.798-1.462-.806-1.715-.012l-2.253 6.322-2.143-6.236a.908.908 0 10-1.718.59l2.987 8.69c.125.365.468.611.854.613z" fill="#16073A"/></g><path d="M319.796 97.312v-10.56h7.92v1.776h-5.712v2.624h4.496v1.696h-4.496v2.688h5.936v1.776h-8.144zm15.21-5.184v1.888h-5.648v-1.888h5.648zm11.768 2.272c-.203.683-.523 1.254-.96 1.712-.437.459-.955.8-1.552 1.024a5.561 5.561 0 01-1.968.336c-1.045 0-1.952-.218-2.72-.656a4.46 4.46 0 01-1.76-1.872c-.405-.81-.608-1.781-.608-2.912 0-1.13.203-2.101.608-2.912a4.459 4.459 0 011.76-1.872c.768-.437 1.664-.656 2.688-.656.725 0 1.381.102 1.968.304.587.192 1.083.491 1.488.896.416.406.72.918.912 1.536l-2 .848c-.181-.64-.459-1.093-.832-1.36-.373-.277-.853-.416-1.44-.416-.576 0-1.083.139-1.52.416-.427.278-.757.688-.992 1.232-.235.534-.352 1.195-.352 1.984 0 .779.107 1.44.32 1.984.224.544.549.955.976 1.232.427.278.949.416 1.568.416.576 0 1.072-.154 1.488-.464.427-.309.725-.778.896-1.408l2.032.608zm5.306-5.248c.81 0 1.52.166 2.128.496.618.331 1.098.806 1.44 1.424.352.619.528 1.366.528 2.24 0 .864-.176 1.611-.528 2.24a3.503 3.503 0 01-1.44 1.424c-.608.331-1.318.496-2.128.496-.8 0-1.51-.165-2.128-.496a3.596 3.596 0 01-1.456-1.424c-.342-.629-.512-1.376-.512-2.24 0-.874.17-1.621.512-2.24a3.595 3.595 0 011.456-1.424c.618-.33 1.328-.496 2.128-.496zm0 1.632c-.406 0-.752.096-1.04.288-.278.182-.491.459-.64.832-.15.374-.224.843-.224 1.408 0 .566.074 1.035.224 1.408.149.374.362.656.64.848.288.182.634.272 1.04.272.394 0 .73-.09 1.008-.272.288-.192.506-.474.656-.848.149-.373.224-.842.224-1.408 0-.565-.075-1.034-.224-1.408-.15-.373-.368-.65-.656-.832-.278-.192-.614-.288-1.008-.288zm5.93 6.528v-8h1.968l.08 1.44c.267-.533.629-.933 1.088-1.2.469-.266.987-.4 1.552-.4.576 0 1.093.134 1.552.4.469.267.821.662 1.056 1.184.171-.352.4-.645.688-.88.288-.234.608-.41.96-.528a3.366 3.366 0 011.072-.176c.523 0 .997.107 1.424.32a2.44 2.44 0 011.04.96c.256.427.384.971.384 1.632v5.248h-2.192v-4.816c0-.586-.128-1.002-.384-1.248-.256-.245-.587-.368-.992-.368-.32 0-.619.08-.896.24-.267.16-.48.4-.64.72-.149.31-.224.699-.224 1.168v4.304h-2.192v-4.816c0-.586-.133-1.002-.4-1.248-.256-.245-.587-.368-.992-.368a1.74 1.74 0 00-.832.224c-.267.15-.491.384-.672.704-.171.32-.256.742-.256 1.264v4.24h-2.192zm15.125 0v-8h1.968l.08 1.44c.267-.533.629-.933 1.088-1.2.469-.266.987-.4 1.552-.4.576 0 1.093.134 1.552.4.469.267.821.662 1.056 1.184.171-.352.4-.645.688-.88.288-.234.608-.41.96-.528a3.366 3.366 0 011.072-.176c.523 0 .997.107 1.424.32a2.44 2.44 0 011.04.96c.256.427.384.971.384 1.632v5.248h-2.192v-4.816c0-.586-.128-1.002-.384-1.248-.256-.245-.587-.368-.992-.368-.32 0-.619.08-.896.24-.267.16-.48.4-.64.72-.149.31-.224.699-.224 1.168v4.304h-2.192v-4.816c0-.586-.133-1.002-.4-1.248-.256-.245-.587-.368-.992-.368a1.74 1.74 0 00-.832.224c-.267.15-.491.384-.672.704-.171.32-.256.742-.256 1.264v4.24h-2.192zm18.837.16c-.843 0-1.579-.165-2.208-.496a3.491 3.491 0 01-1.44-1.424c-.341-.618-.512-1.365-.512-2.24 0-.874.171-1.621.512-2.24a3.518 3.518 0 011.424-1.424c.619-.33 1.323-.496 2.112-.496.811 0 1.499.166 2.064.496.565.32.997.763 1.296 1.328.299.555.448 1.19.448 1.904 0 .214-.005.416-.016.608a6.306 6.306 0 01-.048.512h-6.384v-1.52h5.424l-1.056.384c0-.672-.155-1.189-.464-1.552-.299-.362-.725-.544-1.28-.544-.405 0-.757.096-1.056.288-.288.192-.507.48-.656.864-.149.374-.224.848-.224 1.424 0 .566.08 1.035.24 1.408.171.363.405.635.704.816.309.182.677.272 1.104.272.469 0 .848-.09 1.136-.272a1.84 1.84 0 00.672-.752l1.744.672a2.77 2.77 0 01-.784 1.072 3.548 3.548 0 01-1.232.688c-.469.15-.976.224-1.52.224zm5.554-.16v-8h1.904l.144 1.568c.213-.554.522-.981.928-1.28.416-.298.933-.448 1.552-.448.181 0 .346.016.496.048.149.032.272.075.368.128l-.256 1.84a1.694 1.694 0 00-.4-.096 4.365 4.365 0 00-.592-.032c-.32 0-.63.08-.928.24-.299.15-.544.384-.736.704-.192.31-.288.704-.288 1.184v4.144h-2.192zm10.225-8.16c.715 0 1.318.107 1.808.32.502.203.902.486 1.2.848.31.352.528.747.656 1.184l-2.048.736c-.106-.48-.288-.842-.544-1.088-.256-.245-.602-.368-1.04-.368-.405 0-.752.096-1.04.288-.288.182-.506.464-.656.848-.149.374-.224.843-.224 1.408 0 .566.075 1.035.224 1.408.16.374.384.651.672.832.299.182.646.272 1.04.272.32 0 .592-.053.816-.16.224-.117.406-.282.544-.496.15-.213.251-.469.304-.768l1.984.64a2.93 2.93 0 01-.656 1.264c-.32.363-.73.646-1.232.848-.501.203-1.082.304-1.744.304-.821 0-1.546-.165-2.176-.496a3.477 3.477 0 01-1.456-1.424c-.341-.618-.512-1.365-.512-2.24 0-.874.171-1.621.512-2.24a3.502 3.502 0 011.44-1.424c.619-.33 1.328-.496 2.128-.496zm9.112 8.32c-.843 0-1.579-.165-2.208-.496a3.491 3.491 0 01-1.44-1.424c-.342-.618-.512-1.365-.512-2.24 0-.874.17-1.621.512-2.24a3.518 3.518 0 011.424-1.424c.618-.33 1.322-.496 2.112-.496.81 0 1.498.166 2.064.496.565.32.997.763 1.296 1.328.298.555.448 1.19.448 1.904 0 .214-.006.416-.016.608a6.306 6.306 0 01-.048.512h-6.384v-1.52h5.424l-1.056.384c0-.672-.155-1.189-.464-1.552-.299-.362-.726-.544-1.28-.544-.406 0-.758.096-1.056.288-.288.192-.507.48-.656.864-.15.374-.224.848-.224 1.424 0 .566.08 1.035.24 1.408.17.363.405.635.704.816.309.182.677.272 1.104.272.469 0 .848-.09 1.136-.272a1.84 1.84 0 00.672-.752l1.744.672a2.77 2.77 0 01-.784 1.072 3.558 3.558 0 01-1.232.688c-.47.15-.976.224-1.52.224zm20.42-8.16h2.336l-2.56 8h-2.528l-1.744-5.44-1.68 5.44h-2.528l-2.56-8h2.336l1.6 6.128 1.776-6.128h2.176l1.792 6.128 1.584-6.128zm7.189 8.16c-.843 0-1.579-.165-2.208-.496a3.491 3.491 0 01-1.44-1.424c-.341-.618-.512-1.365-.512-2.24 0-.874.171-1.621.512-2.24a3.518 3.518 0 011.424-1.424c.619-.33 1.323-.496 2.112-.496.811 0 1.499.166 2.064.496.565.32.997.763 1.296 1.328.299.555.448 1.19.448 1.904 0 .214-.005.416-.016.608a6.306 6.306 0 01-.048.512h-6.384v-1.52h5.424l-1.056.384c0-.672-.155-1.189-.464-1.552-.299-.362-.725-.544-1.28-.544-.405 0-.757.096-1.056.288-.288.192-.507.48-.656.864-.149.374-.224.848-.224 1.424 0 .566.08 1.035.24 1.408.171.363.405.635.704.816.309.182.677.272 1.104.272.469 0 .848-.09 1.136-.272a1.84 1.84 0 00.672-.752l1.744.672a2.77 2.77 0 01-.784 1.072 3.548 3.548 0 01-1.232.688c-.469.15-.976.224-1.52.224zm10.258 0c-.491 0-.939-.101-1.344-.304a2.962 2.962 0 01-.992-.864 3.424 3.424 0 01-.528-1.248l.224-.288-.128 2.544h-1.936V85.808h2.192v5.76l-.208-.336c.17-.597.496-1.093.976-1.488.48-.394 1.082-.592 1.808-.592.629 0 1.2.166 1.712.496.512.331.912.806 1.2 1.424.298.619.448 1.371.448 2.256 0 .864-.15 1.606-.448 2.224-.288.619-.694 1.094-1.216 1.424-.512.331-1.099.496-1.76.496zm-.656-1.68c.586 0 1.045-.208 1.376-.624.341-.426.512-1.045.512-1.856 0-.81-.166-1.424-.496-1.84-.331-.426-.79-.64-1.376-.64-.384 0-.715.102-.992.304-.278.203-.496.491-.656.864-.15.374-.224.816-.224 1.328 0 .523.074.971.224 1.344.16.363.378.64.656.832.288.192.613.288.976.288zm9.183 1.68c-.811 0-1.552-.144-2.224-.432a4.127 4.127 0 01-1.616-1.216l1.264-1.28c.256.384.597.699 1.024.944.426.246.933.368 1.52.368.416 0 .746-.058.992-.176.256-.128.384-.325.384-.592a.589.589 0 00-.176-.432c-.118-.128-.352-.229-.704-.304l-1.408-.288c-.928-.192-1.59-.48-1.984-.864-.384-.394-.576-.901-.576-1.52 0-.437.128-.848.384-1.232.266-.384.661-.693 1.184-.928.522-.245 1.173-.368 1.952-.368.8 0 1.493.128 2.08.384.597.246 1.066.614 1.408 1.104l-1.312 1.28a2.29 2.29 0 00-.928-.848 2.448 2.448 0 00-1.184-.304c-.299 0-.555.032-.768.096-.214.064-.374.155-.48.272a.561.561 0 00-.16.416c0 .171.074.32.224.448.149.118.421.219.816.304l1.632.336c.789.16 1.354.432 1.696.816.341.374.512.827.512 1.36 0 .512-.139.971-.416 1.376-.267.395-.667.71-1.2.944-.523.224-1.168.336-1.936.336zm6.404-9.312c-.459 0-.8-.096-1.024-.288-.224-.202-.336-.496-.336-.88 0-.394.112-.688.336-.88.224-.202.565-.304 1.024-.304.458 0 .8.102 1.024.304.224.192.336.486.336.88 0 .384-.112.678-.336.88-.224.192-.566.288-1.024.288zm1.088 1.152v8h-2.192v-8h2.192zm5.155-2.448v7.84c0 .384.096.667.288.848.203.171.475.256.816.256.267 0 .502-.037.704-.112a2.02 2.02 0 00.544-.336l.352 1.456a2.894 2.894 0 01-.96.48 4.138 4.138 0 01-1.216.176c-.533 0-1.008-.08-1.424-.24a2.015 2.015 0 01-.96-.768c-.224-.352-.336-.821-.336-1.408v-7.584l2.192-.608zm2.56 2.448v1.632h-6.224v-1.632h6.224zm5.195 8.16c-.842 0-1.578-.165-2.208-.496a3.503 3.503 0 01-1.44-1.424c-.341-.618-.512-1.365-.512-2.24 0-.874.171-1.621.512-2.24a3.524 3.524 0 011.424-1.424c.619-.33 1.323-.496 2.112-.496.811 0 1.499.166 2.064.496.566.32.998.763 1.296 1.328.299.555.448 1.19.448 1.904 0 .214-.005.416-.016.608-.01.192-.026.363-.048.512h-6.384v-1.52h5.424l-1.056.384c0-.672-.154-1.189-.464-1.552-.298-.362-.725-.544-1.28-.544-.405 0-.757.096-1.056.288-.288.192-.506.48-.656.864-.149.374-.224.848-.224 1.424 0 .566.08 1.035.24 1.408.171.363.406.635.704.816.31.182.678.272 1.104.272.47 0 .848-.09 1.136-.272a1.84 1.84 0 00.672-.752l1.744.672a2.76 2.76 0 01-.784 1.072 3.548 3.548 0 01-1.232.688c-.469.15-.976.224-1.52.224zm8.754 0c-.811 0-1.552-.144-2.224-.432a4.134 4.134 0 01-1.616-1.216l1.264-1.28c.256.384.597.699 1.024.944.427.246.933.368 1.52.368.416 0 .747-.058.992-.176.256-.128.384-.325.384-.592a.589.589 0 00-.176-.432c-.117-.128-.352-.229-.704-.304l-1.408-.288c-.928-.192-1.589-.48-1.984-.864-.384-.394-.576-.901-.576-1.52 0-.437.128-.848.384-1.232.267-.384.661-.693 1.184-.928.523-.245 1.173-.368 1.952-.368.8 0 1.493.128 2.08.384.597.246 1.067.614 1.408 1.104l-1.312 1.28a2.29 2.29 0 00-.928-.848 2.445 2.445 0 00-1.184-.304c-.299 0-.555.032-.768.096-.213.064-.373.155-.48.272a.561.561 0 00-.16.416c0 .171.075.32.224.448.149.118.421.219.816.304l1.632.336c.789.16 1.355.432 1.696.816.341.374.512.827.512 1.36 0 .512-.139.971-.416 1.376-.267.395-.667.71-1.2.944-.523.224-1.168.336-1.936.336zM.025 230.902c.004 4.865.636 27.516.688 32.527.294 3.57.702 5.919 1.166 8.813.896 5.596 1.971 11.858 6.982 15.298 4.627 3.177 10.875 3.203 16.279 3.495 12.366.667 24.795-.265 37.165-.139 45.153.458 90.45-1.843 135.561-.528 3.573.104 7.126.196 10.704.193 12.542-.012 40.222 4.438 40.295-13.976.064-16.236.412-32.43.98-48.69.226-6.491 1.531-13.363-2.94-16.702-5.367-4.008-22.792-3.915-29.227-3.915-14.739 0-34.523.331-50.136.816-14.129.44-28.34.036-42.51.431-34.177.952-69.5-2.817-103.454.344-5.94.553-12.49.23-17.377 4.288-4.768 3.959-4.18 12.124-4.176 17.745z" fill="#16073A"/><path d="M3.51 225.625c.004 4.865.636 27.515.688 32.527.294 3.569.702 5.919 1.166 8.813.896 5.596 1.971 11.857 6.982 15.298 4.626 3.176 10.875 3.202 16.279 3.494 12.366.667 24.795-.265 37.165-.139 45.153.459 90.45-1.843 135.561-.528 3.573.104 7.126.196 10.704.193 12.542-.011 40.221 4.439 40.295-13.976.064-16.235.412-32.43.979-48.689.227-6.491 1.532-13.364-2.939-16.703-5.367-4.008-22.792-3.915-29.227-3.915-14.739 0-34.523.331-50.136.817-14.129.44-28.341.036-42.51.431-34.178.952-69.5-2.818-103.454.343-5.94.553-12.49.231-17.377 4.289-4.768 3.958-4.18 12.124-4.176 17.745z" fill="#fff" stroke="#16073A" stroke-width="2" stroke-miterlimit="1.5" stroke-linecap="round" stroke-linejoin="round"/><g clip-path="url(#clip1_54_340)"><path d="M153.522 189.658c.06-.349.098-.706.098-1.073a6.31 6.31 0 00-9.353-5.527c-3.469-4.322-8.793-7.092-14.767-7.092-8.259 0-15.278 5.291-17.864 12.667-.351-.03-.706-.048-1.065-.048-6.969 0-12.619 5.65-12.619 12.619 0 6.969 5.65 12.619 12.619 12.619h37.858c6.969 0 12.619-5.65 12.619-12.619 0-5.156-3.095-9.588-7.526-11.546z" fill="#F4F2F9"/><path d="M110.571 213.823h37.698c6.972 0 12.746-5.586 12.779-12.558.024-5.183-3.077-9.641-7.526-11.607.06-.349.098-.706.098-1.073a6.31 6.31 0 00-9.353-5.527 19.085 19.085 0 00-2.997-2.983c-1.135 3.808-2.957 7.756-5.414 11.636a16.401 16.401 0 01-13.853 7.631h-10.63a5.899 5.899 0 00-5.899 5.899v7.509a12.56 12.56 0 005.097 1.073z" fill="#D4C5F9"/><path d="M147.627 219.034h-36.254a2.565 2.565 0 01-2.565-2.565v-11.228a2.565 2.565 0 012.565-2.565h36.254a2.565 2.565 0 012.565 2.565v11.228a2.565 2.565 0 01-2.565 2.565z" fill="#3308A8"/><path d="M154.552 189.093c.013-.172.02-.341.02-.508 0-4.004-3.258-7.261-7.262-7.261-.957 0-1.907.191-2.787.556a20.075 20.075 0 00-6.102-4.753.952.952 0 10-.856 1.701 18.164 18.164 0 015.96 4.827.951.951 0 001.203.237 5.355 5.355 0 017.94 4.693c0 .284-.028.581-.085.91a.952.952 0 00.553 1.034 11.682 11.682 0 016.96 10.676c0 5.415-3.778 10.111-8.952 11.347v-7.31a3.52 3.52 0 00-3.516-3.518h-3.813a.952.952 0 100 1.904h3.813c.889 0 1.612.724 1.612 1.614v11.227c0 .889-.723 1.613-1.612 1.613H120.39a.952.952 0 100 1.904h27.238a3.52 3.52 0 003.516-3.517V214.5a13.564 13.564 0 007.492-4.353 13.56 13.56 0 003.364-8.942c0-5.131-2.9-9.81-7.448-12.112z" fill="#16073A"/><path d="M115.946 218.082h-4.574a1.615 1.615 0 01-1.612-1.613v-11.227c0-.89.723-1.614 1.612-1.614h28a.952.952 0 100-1.904h-28a3.52 3.52 0 00-3.516 3.518v7.31c-5.174-1.236-8.952-5.932-8.952-11.348 0-6.433 5.234-11.666 11.667-11.666.299 0 .613.014.99.044a.953.953 0 00.974-.634 18 18 0 0121.064-11.559.952.952 0 00.433-1.855 19.965 19.965 0 00-4.532-.52c-8.191 0-15.539 5.045-18.511 12.627a11.928 11.928 0 00-.418-.008c-7.483 0-13.571 6.088-13.571 13.571a13.568 13.568 0 0010.856 13.296v1.969a3.52 3.52 0 003.516 3.517h4.574a.953.953 0 100-1.904z" fill="#16073A"/><path d="M116.765 209.997l-.361-.133c-.951-.35-1.429-.525-1.868-.765-.24-.13-.252-.373-.238-.506.028-.279.231-.629.712-.774 1.172-.354 2.251.5 2.282.526a.953.953 0 001.221-1.462c-.076-.063-1.871-1.544-4.052-.888-1.135.342-1.942 1.285-2.058 2.403-.103.998.365 1.908 1.222 2.374.562.306 1.116.51 2.121.88l.359.132c.369.136 1.215.522 1.1 1.168-.085.477-.66.97-1.473.97-.821 0-1.611-.332-2.115-.887a.952.952 0 10-1.411 1.278c.859.947 2.177 1.513 3.526 1.513 1.677 0 3.085-1.068 3.347-2.539.198-1.105-.307-2.549-2.314-3.29zM142.93 207.819c1.174-.354 2.254.502 2.283.526a.952.952 0 001.22-1.462c-.075-.063-1.871-1.544-4.052-.888-1.134.342-1.942 1.285-2.057 2.403-.103.998.365 1.907 1.222 2.374.561.306 1.115.51 2.12.879l.36.133c.369.136 1.215.522 1.099 1.168-.085.477-.659.97-1.472.97-.821 0-1.612-.332-2.115-.887a.952.952 0 10-1.411 1.278c.858.947 2.176 1.513 3.526 1.513 1.677 0 3.084-1.068 3.347-2.539.197-1.105-.307-2.549-2.315-3.289l-.362-.134c-.95-.349-1.427-.525-1.867-.764-.239-.13-.252-.373-.238-.506.029-.28.231-.63.712-.775zM126.762 208.644a3.643 3.643 0 00-1.774-.46 3.673 3.673 0 00-3.669 3.669 3.673 3.673 0 003.669 3.668c.643 0 1.248-.167 1.774-.46a.952.952 0 001.895-.131v-6.155a.953.953 0 00-1.895-.131zm-1.774 4.973a1.766 1.766 0 010-3.529 1.766 1.766 0 010 3.529zM136.043 208.643a3.645 3.645 0 00-1.774-.459 3.673 3.673 0 00-3.669 3.669 3.673 3.673 0 003.669 3.668c.643 0 1.248-.167 1.774-.459a.952.952 0 001.894-.132v-6.155a.952.952 0 00-1.894-.132zm-1.774 4.974a1.766 1.766 0 01-1.765-1.764c0-.973.792-1.765 1.765-1.765a1.766 1.766 0 010 3.529z" fill="#F4F2F9"/></g><path d="M78.652 238.28c.96 0 1.803.165 2.528.496a4.952 4.952 0 011.856 1.472l-1.232 1.424c-.437-.555-.917-.96-1.44-1.216-.512-.267-1.109-.4-1.792-.4-.448 0-.82.059-1.12.176-.288.117-.5.272-.64.464a1.128 1.128 0 00-.192.64c0 .288.112.533.336.736.224.192.608.352 1.152.48l1.968.448c1.046.235 1.792.587 2.24 1.056.46.459.688 1.056.688 1.792 0 .693-.18 1.291-.544 1.792-.362.491-.869.869-1.52 1.136-.65.256-1.397.384-2.24.384a7.611 7.611 0 01-2.032-.256 6.338 6.338 0 01-1.632-.736 4.874 4.874 0 01-1.2-1.072l1.248-1.488c.246.341.55.645.912.912.363.267.774.48 1.232.64.47.149.96.224 1.472.224.438 0 .806-.048 1.104-.144.31-.107.54-.251.688-.432.16-.192.24-.421.24-.688a.958.958 0 00-.288-.704c-.18-.203-.522-.357-1.024-.464l-2.144-.48a6.95 6.95 0 01-1.6-.576 2.745 2.745 0 01-1.008-.928c-.224-.384-.336-.837-.336-1.36 0-.629.171-1.195.512-1.696.342-.501.832-.896 1.472-1.184.651-.299 1.43-.448 2.336-.448zm10.683 5.616c0-.459-.133-.816-.4-1.072-.255-.256-.597-.384-1.023-.384-.395 0-.742.101-1.04.304-.3.203-.518.539-.656 1.008l-1.872-.576a2.9 2.9 0 011.184-1.696c.618-.427 1.445-.64 2.48-.64.704 0 1.317.112 1.84.336a2.58 2.58 0 011.216.976c.298.437.448.987.448 1.648v3.248c0 .405.192.608.576.608.18 0 .352-.027.512-.08l-.128 1.36c-.278.139-.624.208-1.04.208-.374 0-.71-.064-1.008-.192a1.565 1.565 0 01-.705-.576c-.17-.267-.255-.597-.255-.992v-.064l.383-.064c-.063.405-.24.752-.527 1.04-.288.277-.64.491-1.056.64a3.635 3.635 0 01-1.264.224c-.544 0-1.014-.08-1.409-.24a2.034 2.034 0 01-.911-.736c-.214-.32-.32-.715-.32-1.184 0-.597.192-1.083.576-1.456.383-.384.933-.645 1.647-.784l3.008-.608-.015 1.36-1.92.384c-.363.075-.64.176-.833.304-.18.117-.271.315-.271.592 0 .267.095.469.287.608.203.139.443.208.72.208.225 0 .443-.027.657-.08a1.76 1.76 0 00.576-.256c.17-.117.303-.277.4-.48a1.71 1.71 0 00.144-.736v-2.16zm9.376 0c0-.459-.134-.816-.4-1.072-.257-.256-.598-.384-1.025-.384-.394 0-.74.101-1.04.304-.298.203-.517.539-.655 1.008l-1.872-.576a2.9 2.9 0 011.184-1.696c.618-.427 1.445-.64 2.48-.64.704 0 1.317.112 1.84.336a2.58 2.58 0 011.216.976c.298.437.448.987.448 1.648v3.248c0 .405.192.608.576.608.181 0 .352-.027.512-.08l-.128 1.36c-.278.139-.624.208-1.04.208-.374 0-.71-.064-1.008-.192a1.565 1.565 0 01-.705-.576c-.17-.267-.255-.597-.255-.992v-.064l.383-.064c-.063.405-.24.752-.527 1.04-.288.277-.64.491-1.056.64a3.635 3.635 0 01-1.264.224c-.544 0-1.014-.08-1.409-.24a2.034 2.034 0 01-.911-.736c-.214-.32-.32-.715-.32-1.184 0-.597.192-1.083.576-1.456.383-.384.933-.645 1.647-.784l3.008-.608-.015 1.36-1.92.384c-.363.075-.64.176-.833.304-.18.117-.271.315-.271.592 0 .267.095.469.287.608.203.139.443.208.72.208.225 0 .443-.027.657-.08a1.76 1.76 0 00.576-.256c.17-.117.303-.277.4-.48a1.71 1.71 0 00.144-.736v-2.16zm8.707-5.616c.96 0 1.803.165 2.528.496a4.954 4.954 0 011.856 1.472l-1.232 1.424c-.437-.555-.917-.96-1.44-1.216-.512-.267-1.109-.4-1.792-.4-.448 0-.821.059-1.12.176-.288.117-.501.272-.64.464a1.128 1.128 0 00-.192.64c0 .288.112.533.336.736.224.192.608.352 1.152.48l1.968.448c1.045.235 1.792.587 2.24 1.056.459.459.688 1.056.688 1.792 0 .693-.181 1.291-.544 1.792-.363.491-.869.869-1.52 1.136-.651.256-1.397.384-2.24.384a7.613 7.613 0 01-2.032-.256 6.338 6.338 0 01-1.632-.736 4.874 4.874 0 01-1.2-1.072l1.248-1.488c.245.341.549.645.912.912s.773.48 1.232.64c.469.149.96.224 1.472.224.437 0 .805-.048 1.104-.144.309-.107.539-.251.688-.432.16-.192.24-.421.24-.688a.958.958 0 00-.288-.704c-.181-.203-.523-.357-1.024-.464l-2.144-.48a6.946 6.946 0 01-1.6-.576 2.75 2.75 0 01-1.008-.928c-.224-.384-.336-.837-.336-1.36 0-.629.171-1.195.512-1.696.341-.501.832-.896 1.472-1.184.651-.299 1.429-.448 2.336-.448zm15.188 0c.96 0 1.802.165 2.528.496a4.954 4.954 0 011.856 1.472l-1.232 1.424c-.438-.555-.918-.96-1.44-1.216-.512-.267-1.11-.4-1.792-.4-.448 0-.822.059-1.12.176-.288.117-.502.272-.64.464a1.128 1.128 0 00-.192.64c0 .288.112.533.336.736.224.192.608.352 1.152.48l1.968.448c1.045.235 1.792.587 2.24 1.056.458.459.688 1.056.688 1.792 0 .693-.182 1.291-.544 1.792-.363.491-.87.869-1.52 1.136-.651.256-1.398.384-2.24.384a7.607 7.607 0 01-2.032-.256 6.338 6.338 0 01-1.632-.736 4.874 4.874 0 01-1.2-1.072l1.248-1.488c.245.341.549.645.912.912.362.267.773.48 1.232.64.469.149.96.224 1.472.224.437 0 .805-.048 1.104-.144.309-.107.538-.251.688-.432.16-.192.24-.421.24-.688a.958.958 0 00-.288-.704c-.182-.203-.523-.357-1.024-.464l-2.144-.48a6.946 6.946 0 01-1.6-.576 2.734 2.734 0 01-1.008-.928c-.224-.384-.336-.837-.336-1.36 0-.629.17-1.195.512-1.696.341-.501.832-.896 1.472-1.184.65-.299 1.429-.448 2.336-.448zm9.048.272v7.84c0 .384.096.667.288.848.203.171.475.256.816.256.267 0 .502-.037.704-.112.203-.085.384-.197.544-.336l.352 1.456a2.88 2.88 0 01-.96.48 4.148 4.148 0 01-1.216.176c-.533 0-1.008-.08-1.424-.24a2.015 2.015 0 01-.96-.768c-.224-.352-.336-.821-.336-1.408v-7.584l2.192-.608zm2.56 2.448v1.632h-6.224V241h6.224zm6.122 2.896c0-.459-.134-.816-.4-1.072-.256-.256-.598-.384-1.024-.384-.395 0-.742.101-1.04.304-.299.203-.518.539-.656 1.008l-1.872-.576a2.899 2.899 0 011.184-1.696c.618-.427 1.445-.64 2.48-.64.704 0 1.317.112 1.84.336.522.213.928.539 1.216.976.298.437.448.987.448 1.648v3.248c0 .405.192.608.576.608.181 0 .352-.027.512-.08l-.128 1.36c-.278.139-.624.208-1.04.208a2.53 2.53 0 01-1.008-.192 1.56 1.56 0 01-.704-.576c-.171-.267-.256-.597-.256-.992v-.064l.384-.064c-.064.405-.24.752-.528 1.04-.288.277-.64.491-1.056.64a3.64 3.64 0 01-1.264.224c-.544 0-1.014-.08-1.408-.24a2.03 2.03 0 01-.912-.736c-.214-.32-.32-.715-.32-1.184 0-.597.192-1.083.576-1.456.384-.384.933-.645 1.648-.784l3.008-.608-.016 1.36-1.92.384c-.363.075-.64.176-.832.304-.182.117-.272.315-.272.592 0 .267.096.469.288.608.202.139.442.208.72.208.224 0 .442-.027.656-.08.213-.053.405-.139.576-.256.17-.117.304-.277.4-.48a1.71 1.71 0 00.144-.736v-2.16zm4.627 5.104v-8h1.904l.144 1.568c.213-.555.523-.981.928-1.28.416-.299.933-.448 1.552-.448.181 0 .347.016.496.048.149.032.272.075.368.128l-.256 1.84a1.665 1.665 0 00-.4-.096 4.42 4.42 0 00-.592-.032c-.32 0-.629.08-.928.24a1.786 1.786 0 00-.736.704c-.192.309-.288.704-.288 1.184V249h-2.192zm9.285-10.448v7.84c0 .384.096.667.288.848.203.171.475.256.816.256.267 0 .501-.037.704-.112.203-.085.384-.197.544-.336l.352 1.456a2.88 2.88 0 01-.96.48 4.148 4.148 0 01-1.216.176c-.533 0-1.008-.08-1.424-.24a2.015 2.015 0 01-.96-.768c-.224-.352-.336-.821-.336-1.408v-7.584l2.192-.608zm2.56 2.448v1.632h-6.224V241h6.224zm4.267 8.16a3.474 3.474 0 01-1.44-.288 2.283 2.283 0 01-1.024-.912c-.245-.427-.368-.976-.368-1.648V241h2.192v4.784c0 .619.128 1.051.384 1.296.256.235.624.352 1.104.352.224 0 .443-.037.656-.112.213-.085.4-.213.56-.384.171-.171.304-.389.4-.656.096-.277.144-.603.144-.976V241h2.192v8h-1.952l-.08-1.392c-.267.533-.635.928-1.104 1.184-.459.245-1.013.368-1.664.368zm7.107 3.2V241h1.968l.144 2.544-.272-.288c.096-.469.272-.885.528-1.248a2.76 2.76 0 011.008-.848c.405-.213.858-.32 1.36-.32.65 0 1.232.165 1.744.496.512.331.912.805 1.2 1.424.298.608.448 1.349.448 2.224 0 .875-.15 1.627-.448 2.256-.299.619-.71 1.093-1.232 1.424-.512.331-1.099.496-1.76.496-.704 0-1.291-.197-1.76-.592a3.004 3.004 0 01-.944-1.488l.208-.336v5.616h-2.192zm4.048-4.88c.586 0 1.045-.208 1.376-.624.341-.427.512-1.045.512-1.856 0-.811-.166-1.424-.496-1.84-.32-.427-.774-.64-1.36-.64-.374 0-.704.101-.992.304-.278.192-.496.475-.656.848-.16.363-.24.805-.24 1.328 0 .512.074.955.224 1.328.149.373.362.661.64.864.288.192.618.288.992.288zm9.183 1.68c-.811 0-1.552-.144-2.224-.432a4.13 4.13 0 01-1.616-1.216l1.264-1.28c.256.384.597.699 1.024.944.427.245.933.368 1.52.368.416 0 .747-.059.992-.176.256-.128.384-.325.384-.592a.588.588 0 00-.176-.432c-.117-.128-.352-.229-.704-.304l-1.408-.288c-.928-.192-1.589-.48-1.984-.864-.384-.395-.576-.901-.576-1.52 0-.437.128-.848.384-1.232.267-.384.661-.693 1.184-.928.523-.245 1.173-.368 1.952-.368.8 0 1.493.128 2.08.384.597.245 1.067.613 1.408 1.104l-1.312 1.28a2.294 2.294 0 00-.928-.848 2.441 2.441 0 00-1.184-.304c-.299 0-.555.032-.768.096-.213.064-.373.155-.48.272a.561.561 0 00-.16.416c0 .171.075.32.224.448.149.117.421.219.816.304l1.632.336c.789.16 1.355.432 1.696.816.341.373.512.827.512 1.36 0 .512-.139.971-.416 1.376-.267.395-.667.709-1.2.944-.523.224-1.168.336-1.936.336zM278.025 230.902c.004 4.865.636 27.516.688 32.527.294 3.57.702 5.919 1.166 8.813.896 5.596 1.971 11.858 6.982 15.298 4.626 3.177 10.875 3.203 16.279 3.495 12.366.667 24.795-.265 37.165-.139 45.153.458 90.45-1.843 135.561-.528 3.573.104 7.126.196 10.704.193 12.542-.012 40.222 4.438 40.295-13.976.064-16.236.412-32.43.98-48.69.226-6.491 1.531-13.363-2.94-16.702-5.367-4.008-22.792-3.915-29.227-3.915-14.739 0-34.523.331-50.136.816-14.129.44-28.34.036-42.51.431-34.177.952-69.5-2.817-103.454.344-5.94.553-12.49.23-17.377 4.288-4.768 3.959-4.18 12.124-4.176 17.745z" fill="#16073A"/><path d="M281.51 225.624c.004 4.865.636 27.516.688 32.528.294 3.569.702 5.918 1.166 8.812.896 5.596 1.971 11.858 6.982 15.299 4.626 3.176 10.875 3.202 16.279 3.494 12.366.667 24.795-.265 37.165-.139 45.153.458 90.45-1.843 135.561-.528 3.573.104 7.126.196 10.704.193 12.542-.012 40.221 4.439 40.295-13.976.064-16.236.412-32.43.979-48.69.227-6.491 1.532-13.363-2.939-16.702-5.367-4.008-22.792-3.915-29.227-3.915-14.739 0-34.523.331-50.136.817-14.129.439-28.341.036-42.51.431-34.178.952-69.5-2.818-103.455.343-5.94.553-12.489.231-17.376 4.288-4.768 3.959-4.18 12.125-4.176 17.745z" fill="#fff" stroke="#16073A" stroke-width="2" stroke-miterlimit="1.5" stroke-linecap="round" stroke-linejoin="round"/><path d="M404.96 190.98c0 .911-.658 1.679-1.56 1.862-3.567.724-6.25 3.843-6.25 7.581 0 3.739 2.683 6.857 6.25 7.581.902.183 1.56.952 1.56 1.862v5.214a1.907 1.907 0 01-1.918 1.895h-32.04a1.907 1.907 0 01-1.918-1.895v-29.313c0-1.047.859-1.895 1.918-1.895h7.666c.923 0 1.702-.653 1.885-1.547.726-3.534 3.887-6.193 7.678-6.193 3.79 0 6.952 2.659 7.677 6.193a1.927 1.927 0 001.886 1.547h5.248c1.059 0 1.918.848 1.918 1.895v5.213z" fill="#3308A8"/><path d="M435.946 183.872h3.051c1.06 0 1.919.848 1.919 1.895v29.312a1.907 1.907 0 01-1.918 1.896H431.3a1.927 1.927 0 01-1.886-1.547c-.725-3.533-3.887-6.193-7.677-6.193-3.791 0-6.952 2.66-7.678 6.193a1.926 1.926 0 01-1.885 1.547h-5.295a1.908 1.908 0 01-1.919-1.896v-5.213c0-.91-.658-1.679-1.56-1.862-3.567-.724-6.25-3.842-6.25-7.581 0-3.738 2.683-6.857 6.25-7.581.902-.183 1.56-.951 1.56-1.862v-5.213c0-1.047.859-1.895 1.919-1.895h29.067z" fill="#F4F2F9"/><path d="M430.888 183.665l8.109.207c1.06 0 1.919.848 1.919 1.895v29.313a1.907 1.907 0 01-1.919 1.895h-3.14v-28.4a1.907 1.907 0 00-1.918-1.895c-1.685 0-3.051-1.35-3.051-3.015z" fill="#D4C5F9"/><path d="M375.671 203.651h15.685c.599 0 1.084-.479 1.084-1.071 0-.591-.485-1.071-1.084-1.071h-15.685c-.599 0-1.084.48-1.084 1.071 0 .592.485 1.071 1.084 1.071zM375.671 209.524h15.685c.599 0 1.084-.479 1.084-1.07 0-.592-.485-1.071-1.084-1.071h-15.685c-.599 0-1.084.479-1.084 1.071 0 .591.485 1.07 1.084 1.07z" fill="#F4F2F9"/><path d="M434.329 189.381h-15.685c-.599 0-1.084.48-1.084 1.071 0 .592.485 1.071 1.084 1.071h15.685c.599 0 1.084-.479 1.084-1.071 0-.591-.485-1.071-1.084-1.071zM434.329 195.255h-15.685c-.599 0-1.084.479-1.084 1.071 0 .591.485 1.071 1.084 1.071h15.685c.599 0 1.084-.48 1.084-1.071 0-.592-.485-1.071-1.084-1.071z" fill="#16073A"/><path d="M442 205.948c0 .591-.485 1.071-1.084 1.071-.599 0-1.084-.48-1.084-1.071v-20.181a.83.83 0 00-.835-.824h-32.118c-.46 0-.835.37-.835.824v5.214c0 1.401-1.02 2.625-2.426 2.911-3.12.632-5.384 3.38-5.384 6.531 0 3.152 2.264 5.899 5.384 6.532 1.406.286 2.426 1.51 2.426 2.911v5.214c0 .454.375.824.835.824h5.295c.401 0 .74-.283.823-.688.839-4.086 4.514-7.052 8.74-7.052 4.225 0 7.901 2.966 8.74 7.052a.84.84 0 00.823.688h7.697c.46 0 .835-.37.835-.824v-4.12c0-.592.485-1.071 1.084-1.071.599 0 1.084.479 1.084 1.071v4.12c0 1.635-1.347 2.966-3.003 2.966H431.3a3.02 3.02 0 01-2.948-2.405c-.635-3.091-3.417-5.335-6.615-5.335-3.199 0-5.981 2.244-6.615 5.335a3.021 3.021 0 01-2.948 2.405h-5.295a3.01 3.01 0 01-1.919-.687 3.005 3.005 0 01-1.918.687h-32.04c-1.655 0-3.002-1.331-3.002-2.966v-19.637c0-.591.485-1.071 1.084-1.071.599 0 1.084.48 1.084 1.071v19.637a.83.83 0 00.834.824h32.04a.83.83 0 00.834-.824v-5.214c0-.395-.285-.73-.694-.813-4.124-.836-7.116-4.465-7.116-8.63 0-4.164 2.992-7.793 7.116-8.629.409-.083.694-.418.694-.813v-5.214a.83.83 0 00-.834-.824h-5.248a3.021 3.021 0 01-2.948-2.405c-.635-3.091-3.417-5.335-6.615-5.335-3.199 0-5.981 2.244-6.615 5.335a3.021 3.021 0 01-2.948 2.405h-7.666a.83.83 0 00-.834.824v4.571c0 .592-.485 1.071-1.084 1.071a1.077 1.077 0 01-1.084-1.071v-4.571c0-1.635 1.347-2.966 3.002-2.966h7.666c.401 0 .74-.283.823-.689.839-4.086 4.514-7.051 8.74-7.051s7.901 2.965 8.74 7.051a.842.842 0 00.823.689h5.248c.729 0 1.398.258 1.918.687a3.01 3.01 0 011.919-.687h32.119c1.655 0 3.002 1.331 3.002 2.966v20.181zM341.767 238.44c1.653 0 2.933.458 3.84 1.376.907.906 1.36 2.208 1.36 3.904 0 1.685-.453 2.986-1.36 3.904-.907.917-2.187 1.376-3.84 1.376h-4.08v-10.56h4.08zm-.112 8.8c1.003 0 1.755-.299 2.256-.896.512-.608.768-1.483.768-2.624 0-1.142-.256-2.011-.768-2.608-.501-.608-1.253-.912-2.256-.912h-1.76v7.04h1.76zm8.365-7.392c-.459 0-.8-.096-1.024-.288-.224-.203-.336-.496-.336-.88 0-.395.112-.688.336-.88.224-.203.565-.304 1.024-.304.459 0 .8.101 1.024.304.224.192.336.485.336.88 0 .384-.112.677-.336.88-.224.192-.565.288-1.024.288zm1.088 1.152v8h-2.192v-8h2.192zm5.524 8.16c-.811 0-1.552-.144-2.224-.432a4.132 4.132 0 01-1.616-1.216l1.264-1.28c.256.384.597.698 1.024.944.426.245.933.368 1.52.368.416 0 .746-.059.992-.176.256-.128.384-.326.384-.592a.588.588 0 00-.176-.432c-.118-.128-.352-.23-.704-.304l-1.408-.288c-.928-.192-1.59-.48-1.984-.864-.384-.395-.576-.902-.576-1.52 0-.438.128-.848.384-1.232.266-.384.661-.694 1.184-.928.522-.246 1.173-.368 1.952-.368.8 0 1.493.128 2.08.384a3.105 3.105 0 011.408 1.104l-1.312 1.28a2.287 2.287 0 00-.928-.848 2.444 2.444 0 00-1.184-.304c-.299 0-.555.032-.768.096-.214.064-.374.154-.48.272a.56.56 0 00-.16.416c0 .17.074.32.224.448.149.117.421.218.816.304l1.632.336c.789.16 1.354.432 1.696.816.341.373.512.826.512 1.36 0 .512-.139.97-.416 1.376-.267.394-.667.709-1.2.944-.523.224-1.168.336-1.936.336zm8.132-10.608v7.84c0 .384.096.666.288.848.202.17.474.256.816.256.266 0 .501-.038.704-.112.202-.086.384-.198.544-.336l.352 1.456a2.917 2.917 0 01-.96.48c-.384.117-.79.176-1.216.176-.534 0-1.008-.08-1.424-.24a2.006 2.006 0 01-.96-.768c-.224-.352-.336-.822-.336-1.408v-7.584l2.192-.608zm2.56 2.448v1.632H361.1V241h6.224zm1.483 8v-8h1.904l.144 1.568c.213-.555.522-.982.928-1.28.416-.299.933-.448 1.552-.448.181 0 .346.016.496.048.149.032.272.074.368.128l-.256 1.84a1.665 1.665 0 00-.4-.096 4.269 4.269 0 00-.592-.032c-.32 0-.63.08-.928.24a1.786 1.786 0 00-.736.704c-.192.309-.288.704-.288 1.184V249h-2.192zm7.854-9.152c-.459 0-.8-.096-1.024-.288-.224-.203-.336-.496-.336-.88 0-.395.112-.688.336-.88.224-.203.565-.304 1.024-.304.458 0 .8.101 1.024.304.224.192.336.485.336.88 0 .384-.112.677-.336.88-.224.192-.566.288-1.024.288zm1.088 1.152v8h-2.192v-8h2.192zm7.027 8.16c-.49 0-.938-.102-1.344-.304a2.995 2.995 0 01-.992-.864 3.432 3.432 0 01-.528-1.248l.224-.288-.128 2.544h-1.936v-11.504h2.192v5.76l-.208-.336a2.92 2.92 0 01.976-1.488c.48-.395 1.083-.592 1.808-.592.63 0 1.2.165 1.712.496.512.33.912.805 1.2 1.424.299.618.448 1.37.448 2.256 0 .864-.149 1.605-.448 2.224-.288.618-.693 1.093-1.216 1.424-.512.33-1.098.496-1.76.496zm-.656-1.68c.587 0 1.046-.208 1.376-.624.342-.427.512-1.046.512-1.856 0-.811-.165-1.424-.496-1.84-.33-.427-.789-.64-1.376-.64-.384 0-.714.101-.992.304-.277.202-.496.49-.656.864-.149.373-.224.816-.224 1.328 0 .522.075.97.224 1.344.16.362.379.64.656.832.288.192.614.288.976.288zm8.768 1.68a3.467 3.467 0 01-1.44-.288 2.283 2.283 0 01-1.024-.912c-.246-.427-.368-.976-.368-1.648V241h2.192v4.784c0 .618.128 1.05.384 1.296.256.234.624.352 1.104.352.224 0 .442-.038.656-.112.213-.086.4-.214.56-.384.17-.171.304-.39.4-.656a2.99 2.99 0 00.144-.976V241h2.192v8h-1.952l-.08-1.392c-.267.533-.635.928-1.104 1.184-.459.245-1.014.368-1.664.368zm9.938-10.608v7.84c0 .384.096.666.288.848.203.17.475.256.816.256.267 0 .502-.038.704-.112.203-.086.384-.198.544-.336l.352 1.456a2.917 2.917 0 01-.96.48 4.148 4.148 0 01-1.216.176c-.533 0-1.008-.08-1.424-.24a2.015 2.015 0 01-.96-.768c-.224-.352-.336-.822-.336-1.408v-7.584l2.192-.608zm2.56 2.448v1.632h-6.224V241h6.224zm5.195 8.16c-.842 0-1.578-.166-2.208-.496a3.508 3.508 0 01-1.44-1.424c-.341-.619-.512-1.366-.512-2.24 0-.875.171-1.622.512-2.24a3.518 3.518 0 011.424-1.424c.619-.331 1.323-.496 2.112-.496.811 0 1.499.165 2.064.496.566.32.998.762 1.296 1.328.299.554.448 1.189.448 1.904 0 .213-.005.416-.016.608-.01.192-.026.362-.048.512h-6.384v-1.52h5.424l-1.056.384c0-.672-.154-1.19-.464-1.552-.298-.363-.725-.544-1.28-.544-.405 0-.757.096-1.056.288-.288.192-.506.48-.656.864-.149.373-.224.848-.224 1.424 0 .565.08 1.034.24 1.408.171.362.406.634.704.816.31.181.678.272 1.104.272.47 0 .848-.091 1.136-.272.288-.182.512-.432.672-.752l1.744.672c-.17.416-.432.773-.784 1.072a3.558 3.558 0 01-1.232.688 4.996 4.996 0 01-1.52.224zm8.578 0a3.259 3.259 0 01-1.776-.496c-.512-.331-.917-.806-1.216-1.424-.288-.619-.432-1.36-.432-2.224 0-.886.155-1.638.464-2.256.309-.63.725-1.104 1.248-1.424a3.329 3.329 0 011.792-.496c.704 0 1.285.202 1.744.608.459.405.757.928.896 1.568l-.208.256v-5.776h2.192V249h-1.968l-.144-2.432.272.128a2.978 2.978 0 01-.512 1.312 2.787 2.787 0 01-1.008.848 2.97 2.97 0 01-1.344.304zm.64-1.68c.384 0 .715-.096.992-.288.277-.203.491-.496.64-.88.16-.384.24-.843.24-1.376 0-.512-.075-.944-.224-1.296-.149-.363-.363-.64-.64-.832a1.672 1.672 0 00-.976-.288c-.597 0-1.067.213-1.408.64-.331.416-.496 1.029-.496 1.84 0 .81.165 1.429.496 1.856.331.416.789.624 1.376.624zm13.902-8.928v7.84c0 .384.096.666.288.848.203.17.475.256.816.256.267 0 .502-.038.704-.112.203-.086.384-.198.544-.336l.352 1.456a2.917 2.917 0 01-.96.48 4.148 4.148 0 01-1.216.176c-.533 0-1.008-.08-1.424-.24a2.015 2.015 0 01-.96-.768c-.224-.352-.336-.822-.336-1.408v-7.584l2.192-.608zm2.56 2.448v1.632h-6.224V241h6.224zm5.195 8.16c-.842 0-1.578-.166-2.208-.496a3.508 3.508 0 01-1.44-1.424c-.341-.619-.512-1.366-.512-2.24 0-.875.171-1.622.512-2.24a3.518 3.518 0 011.424-1.424c.619-.331 1.323-.496 2.112-.496.811 0 1.499.165 2.064.496.566.32.998.762 1.296 1.328.299.554.448 1.189.448 1.904 0 .213-.005.416-.016.608-.01.192-.026.362-.048.512h-6.384v-1.52h5.424l-1.056.384c0-.672-.154-1.19-.464-1.552-.298-.363-.725-.544-1.28-.544-.405 0-.757.096-1.056.288-.288.192-.506.48-.656.864-.149.373-.224.848-.224 1.424 0 .565.08 1.034.24 1.408.171.362.406.634.704.816.31.181.678.272 1.104.272.47 0 .848-.091 1.136-.272.288-.182.512-.432.672-.752l1.744.672c-.17.416-.432.773-.784 1.072a3.558 3.558 0 01-1.232.688 4.996 4.996 0 01-1.52.224zm10.114-5.264c0-.459-.133-.816-.4-1.072-.256-.256-.597-.384-1.024-.384-.395 0-.741.101-1.04.304-.299.202-.517.538-.656 1.008l-1.872-.576a2.896 2.896 0 011.184-1.696c.619-.427 1.445-.64 2.48-.64.704 0 1.317.112 1.84.336.523.213.928.538 1.216.976.299.437.448.986.448 1.648v3.248c0 .405.192.608.576.608.181 0 .352-.027.512-.08l-.128 1.36c-.277.138-.624.208-1.04.208-.373 0-.709-.064-1.008-.192a1.565 1.565 0 01-.704-.576c-.171-.267-.256-.598-.256-.992v-.064l.384-.064c-.064.405-.24.752-.528 1.04-.288.277-.64.49-1.056.64a3.635 3.635 0 01-1.264.224c-.544 0-1.013-.08-1.408-.24a2.03 2.03 0 01-.912-.736c-.213-.32-.32-.715-.32-1.184 0-.598.192-1.083.576-1.456.384-.384.933-.646 1.648-.784l3.008-.608-.016 1.36-1.92.384c-.363.074-.64.176-.832.304-.181.117-.272.314-.272.592 0 .266.096.469.288.608.203.138.443.208.72.208.224 0 .443-.027.656-.08.213-.054.405-.139.576-.256.171-.118.304-.278.4-.48a1.71 1.71 0 00.144-.736v-2.16zm4.627 5.104v-8h1.968l.08 1.44c.267-.534.63-.934 1.088-1.2.47-.267.987-.4 1.552-.4.576 0 1.094.133 1.552.4.47.266.822.661 1.056 1.184.171-.352.4-.646.688-.88.288-.235.608-.411.96-.528.352-.118.71-.176 1.072-.176.523 0 .998.106 1.424.32.438.213.784.533 1.04.96.256.426.384.97.384 1.632V249h-2.192v-4.816c0-.587-.128-1.003-.384-1.248-.256-.246-.586-.368-.992-.368-.32 0-.618.08-.896.24a1.7 1.7 0 00-.64.72c-.149.309-.224.698-.224 1.168V249h-2.192v-4.816c0-.587-.133-1.003-.4-1.248-.256-.246-.586-.368-.992-.368-.277 0-.554.074-.832.224-.266.149-.49.384-.672.704-.17.32-.256.741-.256 1.264V249h-2.192zm18.325.16c-.81 0-1.552-.144-2.224-.432a4.14 4.14 0 01-1.616-1.216l1.264-1.28c.256.384.598.698 1.024.944.427.245.934.368 1.52.368.416 0 .747-.059.992-.176.256-.128.384-.326.384-.592a.584.584 0 00-.176-.432c-.117-.128-.352-.23-.704-.304l-1.408-.288c-.928-.192-1.589-.48-1.984-.864-.384-.395-.576-.902-.576-1.52 0-.438.128-.848.384-1.232.267-.384.662-.694 1.184-.928.523-.246 1.174-.368 1.952-.368.8 0 1.494.128 2.08.384.598.245 1.067.613 1.408 1.104l-1.312 1.28a2.28 2.28 0 00-.928-.848 2.441 2.441 0 00-1.184-.304 2.7 2.7 0 00-.768.096c-.213.064-.373.154-.48.272a.564.564 0 00-.16.416c0 .17.075.32.224.448.15.117.422.218.816.304l1.632.336c.79.16 1.355.432 1.696.816.342.373.512.826.512 1.36 0 .512-.138.97-.416 1.376-.266.394-.666.709-1.2.944-.522.224-1.168.336-1.936.336z" fill="#16073A"/><defs><clipPath id="clip0_54_340"><path fill="#fff" transform="translate(374)" d="M0 0h62v62H0z"/></clipPath><clipPath id="clip1_54_340"><path fill="#fff" transform="translate(97 165)" d="M0 0h65v65H0z"/></clipPath></defs></svg>