<svg width="215" height="48" viewBox="0 0 215 48" fill="none" xmlns="http://www.w3.org/2000/svg">
<path d="M31.6901 47.7219C31.1761 47.7229 30.667 47.6223 30.192 47.4258C29.717 47.2293 29.2856 46.9409 28.9224 46.5771L23.2654 40.9201C22.3658 41.0376 21.4595 41.0964 20.5522 41.0962C15.9393 41.0971 11.4602 39.5458 7.83591 36.692C4.21167 33.8381 1.65314 29.8478 0.572161 25.3633C-0.508822 20.8787 -0.0493684 16.1609 1.87656 11.9692C3.80249 7.77753 7.08286 4.35581 11.1896 2.25487C15.2964 0.153922 19.9907 -0.504026 24.5168 0.386923C29.0429 1.27787 33.1376 3.66589 36.1417 7.16659C39.1458 10.6673 40.8845 15.077 41.0781 19.6859C41.2717 24.2948 39.9088 28.8348 37.2088 32.5751C36.9099 32.998 36.5302 33.3574 36.0916 33.6327C35.6529 33.9079 35.164 34.0934 34.6532 34.1784C34.1424 34.2634 33.6198 34.2463 33.1156 34.1281C32.6115 34.0099 32.1357 33.7928 31.716 33.4895C31.2963 33.1862 30.9409 32.8027 30.6703 32.3611C30.3998 31.9196 30.2195 31.4288 30.1398 30.9171C30.0602 30.4054 30.0828 29.883 30.2064 29.3801C30.33 28.8773 30.5521 28.4039 30.8598 27.9874C32.5268 25.6733 33.3667 22.8657 33.2445 20.0164C33.1224 17.167 32.0452 14.4417 30.1863 12.2788C28.3273 10.1159 25.7948 8.64123 22.9963 8.09215C20.1977 7.54306 17.2957 7.95146 14.7574 9.25161C12.219 10.5518 10.1919 12.6681 9.00211 15.26C7.81236 17.852 7.52919 20.7688 8.19816 23.5412C8.86713 26.3136 10.4493 28.7803 12.6902 30.5444C14.9311 32.3085 17.7003 33.2675 20.5522 33.267C21.5884 33.2663 22.6205 33.1396 23.6261 32.8896C24.2838 32.7286 24.972 32.7406 25.6238 32.9243C26.2756 33.108 26.8688 33.4572 27.3457 33.9379L34.4746 41.0669C35.0216 41.6146 35.3941 42.3122 35.5449 43.0715C35.6957 43.8307 35.6182 44.6177 35.322 45.3329C35.0259 46.0482 34.5244 46.6596 33.881 47.09C33.2376 47.5205 32.481 47.7506 31.7069 47.7513L31.6901 47.7219Z" fill="#3308A8"/>
<path d="M72.9289 21.1436C72.9537 22.9642 72.4465 24.7525 71.4695 26.289C70.5251 27.7879 69.1599 28.9752 67.5444 29.7025C67.7273 29.9901 67.9854 30.2222 68.2909 30.3735C68.617 30.5537 68.9833 30.6489 69.356 30.6502C69.722 30.6498 70.0857 30.5918 70.4337 30.4783C70.734 30.3844 71.0171 30.2428 71.2724 30.0589C71.6619 29.7644 71.992 29.3987 72.2453 28.9812L74.3714 31.5309C73.6552 32.3096 72.7815 32.927 71.8083 33.342C70.8351 33.757 69.7847 33.9601 68.727 33.9379C67.6358 33.9286 66.5666 33.6305 65.628 33.0741C64.6232 32.5087 63.8089 31.6578 63.288 30.6293C62.0219 30.6598 60.7626 30.435 59.5853 29.9681C58.408 29.5012 57.3369 28.8019 56.4359 27.9119C54.6523 26.1133 53.6515 23.6829 53.6515 21.1499C53.6515 18.6169 54.6523 16.1864 56.4359 14.3879C58.2911 12.642 60.7426 11.6698 63.2901 11.6698C65.8377 11.6698 68.2892 12.642 70.1444 14.3879C71.0512 15.2596 71.7669 16.3103 72.2463 17.4732C72.7256 18.6362 72.9581 19.8861 72.9289 21.1436ZM68.7354 21.1436C68.7713 19.5945 68.2062 18.0917 67.1586 16.9501C66.6713 16.4052 66.0744 15.9693 65.4071 15.6709C64.7398 15.3724 64.017 15.2182 63.2859 15.2182C62.5549 15.2182 61.8321 15.3724 61.1648 15.6709C60.4974 15.9693 59.9006 16.4052 59.4132 16.9501C58.3969 18.1065 57.8363 19.5935 57.8363 21.1331C57.8363 22.6727 58.3969 24.1597 59.4132 25.3161C59.9027 25.8575 60.5003 26.2902 61.1673 26.5864C61.8344 26.8826 62.5561 27.0356 63.2859 27.0356C64.0158 27.0356 64.7375 26.8826 65.4046 26.5864C66.0716 26.2902 66.6691 25.8575 67.1586 25.3161C68.2076 24.1876 68.7787 22.6967 68.7521 21.1562L68.7354 21.1436Z" fill="#16073A"/>
<path d="M89.9712 30.4364L88.2644 26.4735H80.5694L78.8626 30.4364H74.5014L82.4313 12.0815H86.3983L94.3282 30.4364H89.9712ZM84.4274 17.5456L82.1168 22.8755H86.7296L84.4274 17.5456Z" fill="#16073A"/>
<path d="M116.94 12.0815V15.6795H108.431V19.6465H116.52V23.2445H108.431V30.4364H104.334V12.0815H116.94Z" fill="#16073A"/>
<path d="M134.309 23.3745C134.334 24.3349 134.161 25.2902 133.8 26.1806C133.44 27.071 132.899 27.8774 132.212 28.5493C130.761 29.8999 128.852 30.6508 126.87 30.6508C124.887 30.6508 122.978 29.8999 121.527 28.5493C120.162 27.1705 119.396 25.3086 119.396 23.3682C119.396 21.4279 120.162 19.566 121.527 18.1872C122.975 16.8292 124.885 16.0734 126.87 16.0734C128.855 16.0734 130.765 16.8292 132.212 18.1872C132.899 18.8618 133.439 19.6704 133.8 20.5628C134.161 21.4552 134.334 22.4123 134.309 23.3745ZM123.331 23.3745C123.286 24.4066 123.639 25.4165 124.316 26.1968C124.639 26.5394 125.029 26.8124 125.462 26.999C125.895 27.1856 126.361 27.2819 126.832 27.2819C127.303 27.2819 127.769 27.1856 128.202 26.999C128.635 26.8124 129.025 26.5394 129.348 26.1968C129.987 25.3922 130.334 24.3954 130.334 23.3682C130.334 22.3411 129.987 21.3443 129.348 20.5397C129.027 20.1932 128.638 19.9167 128.205 19.7277C127.772 19.5386 127.305 19.441 126.832 19.441C126.36 19.441 125.892 19.5386 125.459 19.7277C125.026 19.9167 124.637 20.1932 124.316 20.5397C123.645 21.3277 123.299 22.341 123.347 23.3745H123.331Z" fill="#16073A"/>
<path d="M146.822 23.9239V16.3253H150.789V30.4531H146.822V28.5912C146.419 29.2271 145.862 29.7508 145.202 30.1137C144.542 30.4766 143.801 30.6669 143.048 30.667C141.608 30.7071 140.209 30.1836 139.148 29.2077C138.1 28.2348 137.576 26.795 137.576 24.8884V16.3253H141.539V24.0203C141.539 26.1926 142.335 27.2787 143.929 27.2787C144.31 27.2842 144.687 27.2127 145.04 27.0686C145.392 26.9245 145.712 26.7107 145.979 26.44C146.284 26.0999 146.515 25.7014 146.66 25.2688C146.805 24.8362 146.86 24.3785 146.822 23.9239Z" fill="#16073A"/>
<path d="M158.929 22.561V30.4363H154.991V16.3253H158.929V17.902C159.438 17.3401 160.058 16.8892 160.749 16.5775C161.44 16.2658 162.188 16.1 162.946 16.0904C163.646 16.0748 164.342 16.2072 164.987 16.4789C165.632 16.7506 166.213 17.1556 166.691 17.6672C167.697 18.7155 168.201 20.1134 168.201 21.8607V30.4447H164.259V22.4771C164.259 20.3049 163.462 19.2188 161.869 19.2188C161.487 19.2143 161.108 19.2861 160.754 19.4302C160.401 19.5742 160.08 19.7875 159.81 20.0575C159.222 20.6194 158.929 21.4581 158.929 22.561Z" fill="#16073A"/>
<path d="M177.921 30.6502C176.244 30.6502 174.751 29.9401 173.443 28.5199C172.122 27.086 171.415 25.1928 171.472 23.2445C171.435 22.3003 171.586 21.3581 171.915 20.4723C172.244 19.5864 172.745 18.7742 173.388 18.0823C173.953 17.4504 174.645 16.9449 175.419 16.5988C176.193 16.2526 177.032 16.0737 177.879 16.0736C178.668 16.0503 179.453 16.2005 180.177 16.5135C180.902 16.8265 181.549 17.2948 182.073 17.8852V10.9534H186.015V30.4363H182.073V28.5744C181.594 29.2235 180.968 29.7499 180.246 30.1107C179.525 30.4715 178.728 30.6563 177.921 30.6502ZM175.405 23.3997C175.364 24.4305 175.732 25.4357 176.428 26.1967C176.726 26.5385 177.093 26.8127 177.505 27.0008C177.918 27.1888 178.366 27.2864 178.819 27.287C179.263 27.2903 179.702 27.1941 180.104 27.0054C180.506 26.8168 180.861 26.5404 181.142 26.1967C181.802 25.413 182.144 24.4107 182.102 23.3871C182.137 22.348 181.796 21.3311 181.142 20.5229C180.864 20.1657 180.508 19.8771 180.1 19.6794C179.693 19.4816 179.246 19.38 178.794 19.3823C178.334 19.3824 177.88 19.4866 177.466 19.687C177.052 19.8875 176.689 20.179 176.403 20.5397C175.726 21.3354 175.37 22.3553 175.405 23.3997Z" fill="#16073A"/>
<path d="M197.631 19.7765C197.122 19.7448 196.614 19.8437 196.154 20.0639C195.695 20.2841 195.299 20.6183 195.005 21.0345C194.387 22.0188 194.085 23.1694 194.142 24.3306V30.4489H190.2V16.3253H194.142V18.1914C194.679 17.5868 195.325 17.0877 196.045 16.7194C196.759 16.3292 197.555 16.1136 198.369 16.0904L198.394 19.7933L197.631 19.7765Z" fill="#16073A"/>
<path d="M203.921 36.0053C202.45 35.9695 201.049 35.3689 200.008 34.3279L201.795 31.4134C202.054 31.7031 202.369 31.9383 202.72 32.1053C203.072 32.2723 203.453 32.3678 203.841 32.3863C204.031 32.3814 204.218 32.3294 204.383 32.235C204.548 32.1406 204.688 32.0068 204.789 31.8454C205.04 31.5178 205.179 31.1176 205.183 30.7047C205.183 30.3022 203.366 25.5048 199.732 16.3127H203.925L207.364 25.119L210.807 16.3127H215L208.433 32.965C208.083 33.8826 207.453 34.6672 206.634 35.2085C205.829 35.7374 204.884 36.0147 203.921 36.0053Z" fill="#16073A"/>
</svg>
