<svg width="215" height="48" fill="none" xmlns="http://www.w3.org/2000/svg"><path d="M31.69 47.722a3.899 3.899 0 01-2.768-1.145l-5.657-5.657c-.9.118-1.806.176-2.713.176a20.549 20.549 0 1116.657-8.52 3.92 3.92 0 01-4.093 1.552 3.916 3.916 0 01-2.256-6.14 12.706 12.706 0 10-7.234 4.902 3.924 3.924 0 013.72 1.048l7.129 7.129a3.916 3.916 0 01-2.768 6.684l-.017-.03z" fill="#3308A8"/><path d="M72.929 21.144a9.352 9.352 0 01-1.46 5.145 9.012 9.012 0 01-3.925 3.413c.183.288.441.52.747.671.326.18.692.276 1.065.277.366 0 .73-.058 1.078-.172.3-.094.583-.235.838-.42.39-.294.72-.66.973-1.077l2.126 2.55a7.456 7.456 0 01-5.644 2.407 6.18 6.18 0 01-3.099-.864 5.825 5.825 0 01-2.34-2.445 9.428 9.428 0 01-6.852-2.717 9.603 9.603 0 010-13.524 10.001 10.001 0 0113.708 0 9.08 9.08 0 012.785 6.756zm-4.194 0a5.997 5.997 0 00-1.576-4.194 5.195 5.195 0 00-7.746 0 6.337 6.337 0 000 8.366 5.222 5.222 0 007.746 0 5.959 5.959 0 001.593-4.16l-.017-.012zM89.971 30.436l-1.707-3.962H80.57l-1.706 3.962H74.5l7.93-18.355h3.967l7.93 18.355h-4.357zm-5.544-12.89l-2.31 5.33h4.613l-2.303-5.33zM116.94 12.082v3.598h-8.509v3.966h8.089v3.598h-8.089v7.192h-4.097V12.081h12.606zM134.309 23.375a6.984 6.984 0 01-2.097 5.174 7.841 7.841 0 01-10.685 0 7.365 7.365 0 010-10.362 7.81 7.81 0 0110.685 0 7.016 7.016 0 012.097 5.188zm-10.978 0a4.039 4.039 0 00.985 2.822 3.453 3.453 0 002.516 1.085 3.461 3.461 0 002.516-1.085 4.547 4.547 0 000-5.657 3.427 3.427 0 00-3.889-.812 3.427 3.427 0 00-1.143.812 4.08 4.08 0 00-.969 2.835h-.016zM146.822 23.924v-7.599h3.967v14.128h-3.967v-1.862a4.464 4.464 0 01-3.774 2.076 5.533 5.533 0 01-3.9-1.46c-1.048-.972-1.572-2.412-1.572-4.319v-8.563h3.963v7.695c0 2.173.796 3.259 2.39 3.259a2.829 2.829 0 002.05-.839 3.345 3.345 0 00.843-2.516zM158.929 22.561v7.875h-3.938v-14.11h3.938v1.576a5.517 5.517 0 014.017-1.812 4.974 4.974 0 013.745 1.577c1.006 1.048 1.51 2.446 1.51 4.194v8.584h-3.942v-7.968c0-2.172-.797-3.258-2.39-3.258a2.867 2.867 0 00-2.059.838c-.588.562-.881 1.401-.881 2.504zM177.921 30.65c-1.677 0-3.17-.71-4.478-2.13a7.463 7.463 0 01-1.971-5.276 7.187 7.187 0 011.916-5.162 6.022 6.022 0 014.491-2.008 5.392 5.392 0 014.194 1.811v-6.932h3.942v19.483h-3.942v-1.862a5.108 5.108 0 01-4.152 2.076zm-2.516-7.25a3.914 3.914 0 001.023 2.797 3.183 3.183 0 002.391 1.09 2.972 2.972 0 002.323-1.09 4.1 4.1 0 00.96-2.81 4.322 4.322 0 00-.96-2.864 2.95 2.95 0 00-2.348-1.14 3.05 3.05 0 00-2.391 1.157 4.197 4.197 0 00-.998 2.86zM197.631 19.776a2.99 2.99 0 00-2.626 1.259 5.676 5.676 0 00-.863 3.296v6.118H190.2V16.325h3.942v1.866a6.512 6.512 0 011.903-1.472 5.151 5.151 0 012.324-.629l.025 3.703-.763-.017zM203.921 36.005a5.731 5.731 0 01-3.913-1.677l1.787-2.915a2.929 2.929 0 002.046.973 1.153 1.153 0 00.948-.54c.251-.328.39-.728.394-1.141 0-.403-1.817-5.2-5.451-14.392h4.193l3.439 8.806 3.443-8.806H215l-6.567 16.652a4.697 4.697 0 01-1.799 2.243 4.856 4.856 0 01-2.713.797z" fill="#16073A"/></svg>