<svg width="454" height="430" fill="none" xmlns="http://www.w3.org/2000/svg"><g style="mix-blend-mode:multiply" filter="url(#filter0_i_47_2)"><path d="M129 29.69C129 13.294 142.293 0 158.691 0h146.916c16.398 0 29.691 13.293 29.691 29.69v370.62c0 16.397-13.293 29.69-29.691 29.69H158.691C142.293 430 129 416.707 129 400.31V29.69z" fill="#16073A"/></g><mask id="a" style="mask-type:alpha" maskUnits="userSpaceOnUse" x="136" y="7" width="193" height="416"><path fill-rule="evenodd" clip-rule="evenodd" d="M157.666 7.168c-11.874 0-21.5 9.626-21.5 21.5v372.667c0 11.874 9.626 21.5 21.5 21.5H306.63c11.875 0 21.5-9.626 21.5-21.5V28.668c0-11.874-9.625-21.5-21.5-21.5h-32.292c-2.005 0-2.517 1.278-2.517 3.254 0 6.26-1.536 12.36-10.823 12.36h-57.699c-9.288 0-10.823-6.1-10.823-12.36 0-1.976-.512-3.254-2.517-3.254h-32.293z" fill="#C4C4C4"/></mask><g mask="url(#a)"><rect x="136.166" y="7.168" width="191.964" height="415.667" rx="4" fill="#fff"/><rect x="153.775" y="48" width="155" height="108" rx="16" fill="#F4F2F9"/><rect x="153.775" y="367" width="155" height="38" rx="10" fill="#D4C5F9"/><rect x="190.775" y="383" width="81" height="6" rx="3" fill="#F4F2F9"/><rect x="153.775" y="165" width="73" height="76" rx="16" fill="#F4F2F9"/><rect x="153.775" y="294" width="155" height="6" rx="3" fill="#F4F2F9"/><rect x="153.775" y="306" width="155" height="6" rx="3" fill="#F4F2F9"/><rect x="153.775" y="318" width="155" height="6" rx="3" fill="#F4F2F9"/><rect x="179.775" y="330" width="103" height="6" rx="3" fill="#F4F2F9"/><rect x="179.775" y="270" width="103" height="6" rx="3" fill="#F4F2F9"/><rect x="235.775" y="165" width="73" height="76" rx="16" fill="#F4F2F9"/></g><path d="M46.102 14.371c4.363-1.166 8.42-1.588 12.173-1.267 3.736.262 6.908 1.368 9.518 3.317 2.652 1.875 4.468 4.635 5.448 8.28.98 3.646 1.011 6.82.094 9.522-.874 2.628-2.45 4.877-4.728 6.746-2.236 1.794-4.839 3.278-7.81 4.45l1.153 7.82-13.267 3.545-3.514-13.429c3.62-1.345 6.397-2.654 8.33-3.926 1.976-1.348 3.257-2.698 3.84-4.051.585-1.354.672-2.795.261-4.323-.363-1.353-.966-2.42-1.809-3.204-.783-.799-1.798-1.284-3.045-1.455-1.188-.186-2.666-.044-4.435.43-2.535.677-4.335 1.976-5.398 3.899-1.08 1.864-1.43 4.32-1.053 7.37l-15.857-1.15c-.055-3.263.538-6.351 1.777-9.266 1.282-2.99 3.392-5.601 6.331-7.836 2.982-2.309 6.979-4.133 11.99-5.472zm10.695 45.444c2.654-.709 4.891-.613 6.713.286 1.88.884 3.137 2.502 3.769 4.854.616 2.293.331 4.29-.854 5.994-1.127 1.687-3.017 2.885-5.67 3.594-2.595.693-4.832.598-6.713-.286-1.822-.9-3.04-2.496-3.657-4.789-.632-2.352-.384-4.371.742-6.059 1.186-1.703 3.076-2.9 5.67-3.594z" fill="#D4C5F9"/><path d="M66.369 325.709c4.557 2.642 8.251 5.643 11.082 9.002 2.867 3.297 4.577 6.822 5.128 10.576.65 3.728-.12 7.492-2.304 11.294-2.186 3.801-4.766 6.433-7.742 7.896-2.878 1.437-6.025 1.984-9.44 1.639-3.317-.371-6.683-1.3-10.096-2.789l-5.47 7.373-13.856-8.034 8.128-13.926c4.091 1.882 7.456 3.098 10.096 3.647 2.737.525 4.902.472 6.495-.157 1.594-.63 2.849-1.741 3.765-3.336.81-1.41 1.19-2.784 1.138-4.122.01-1.302-.43-2.538-1.318-3.707-.826-1.133-2.163-2.236-4.01-3.307-2.648-1.535-5.2-1.952-7.656-1.251-2.42.64-4.728 2.368-6.921 5.184l-12.135-14.026c2.633-2.724 5.657-4.772 9.073-6.143 3.513-1.397 7.398-1.801 11.657-1.211 4.356.563 9.152 2.363 14.386 5.398zm-28.493 46.14c2.77 1.607 4.538 3.531 5.302 5.772.826 2.278.534 4.643-.876 7.095-1.374 2.391-3.25 3.797-5.626 4.218-2.315.456-4.858-.119-7.63-1.726-2.709-1.571-4.476-3.496-5.302-5.773-.764-2.241-.46-4.558.916-6.949 1.41-2.453 3.272-3.907 5.587-4.363 2.376-.421 4.919.155 7.629 1.726z" fill="#16073A"/><path d="M428.438 187.392c4.362 1.172 8.087 2.835 11.176 4.989 3.104 2.095 5.299 4.639 6.584 7.632 1.36 2.95 1.553 6.248.578 9.895-.974 3.646-2.534 6.411-4.679 8.293-2.071 1.839-4.56 2.998-7.468 3.478-2.833.436-5.829.419-8.988-.052l-2.912 7.35-13.262-3.564 3.672-13.387c3.807.645 6.866.9 9.177.765 2.385-.179 4.169-.708 5.352-1.588 1.182-.88 1.978-2.085 2.387-3.614.361-1.353.373-2.579.035-3.678-.279-1.084-.916-2.012-1.91-2.783-.935-.756-2.287-1.371-4.055-1.846-2.535-.681-4.743-.455-6.625.678-1.867 1.074-3.399 3.027-4.597 5.857l-13.157-8.926c1.584-2.852 3.641-5.231 6.171-7.136 2.605-1.947 5.739-3.154 9.401-3.62 3.737-.508 8.11-.09 13.12 1.257zm-13.459 44.703c2.652.713 4.542 1.914 5.67 3.604 1.187 1.706 1.466 3.735.838 6.088-.613 2.294-1.859 3.882-3.737 4.764-1.819.898-4.055.99-6.708.278-2.593-.697-4.483-1.899-5.67-3.605-1.128-1.689-1.385-3.681-.772-5.975.628-2.353 1.852-3.978 3.671-4.876 1.879-.882 4.114-.975 6.708-.278z" fill="#3308A8"/><defs><filter id="filter0_i_47_2" x="125" y="0" width="210.298" height="430" filterUnits="userSpaceOnUse" color-interpolation-filters="sRGB"><feFlood flood-opacity="0" result="BackgroundImageFix"/><feBlend in="SourceGraphic" in2="BackgroundImageFix" result="shape"/><feColorMatrix in="SourceAlpha" values="0 0 0 0 0 0 0 0 0 0 0 0 0 0 0 0 0 0 127 0" result="hardAlpha"/><feOffset dx="-4"/><feGaussianBlur stdDeviation="12"/><feComposite in2="hardAlpha" operator="arithmetic" k2="-1" k3="1"/><feColorMatrix values="0 0 0 0 1 0 0 0 0 1 0 0 0 0 1 0 0 0 0.16 0"/><feBlend in2="shape" result="effect1_innerShadow_47_2"/></filter></defs></svg>