<svg width="673" height="1214" viewBox="0 0 673 1214" fill="none" xmlns="http://www.w3.org/2000/svg">
<path d="M465.248 87C606.176 112.852 672 130.681 672 221.477C672 312.272 426.337 328.895 230.348 396.515C34.3589 464.135 -92.6286 609.254 129.024 703.301C350.676 797.349 379.643 802.11 482.465 868.569C605.862 948.327 645.57 1114.02 370 1138.07" stroke="#16073A" stroke-width="2" stroke-linecap="round" stroke-dasharray="8 8"/>
<path d="M23 582.5C23 588.259 18.1157 593 12 593C5.88433 593 1 588.259 1 582.5C1 576.741 5.88433 572 12 572C18.1157 572 23 576.741 23 582.5Z" fill="#3308A8" stroke="#16073A" stroke-width="2"/>
<g clip-path="url(#clip0_42_474)">
<path fill-rule="evenodd" clip-rule="evenodd" d="M327.741 1080.73C327.741 1080.73 334.519 1086.11 350.14 1086.24C365.762 1086.39 373.877 1077.2 373.877 1077.2C373.877 1077.2 355.308 1069.59 327.741 1080.73Z" fill="#3308A8"/>
<path fill-rule="evenodd" clip-rule="evenodd" d="M310.554 1092.97C310.554 1092.97 332.128 1099.92 353.229 1096.48C374.343 1093.03 388.238 1084.87 388.238 1084.87C388.238 1084.87 394.566 1089.12 397.497 1093.39C397.497 1093.39 388.239 1104.01 357.497 1108.67C326.767 1113.32 308.072 1111.45 300.751 1105.77C301.658 1103.48 309.222 1092.7 310.554 1092.97Z" fill="#3308A8"/>
<path fill-rule="evenodd" clip-rule="evenodd" d="M296.796 1114.48C296.796 1114.48 307.151 1121.54 328.554 1119.94C349.956 1118.33 375.549 1113.18 384.003 1110.64C392.444 1108.1 401.219 1103.96 402.679 1100.53C402.679 1100.53 405.37 1103.89 407.372 1108.72C407.372 1108.72 396.309 1121.45 362.37 1129.25C328.444 1137.04 304.632 1128.5 294.827 1122.97C295.193 1120.64 296.782 1113.87 296.796 1114.48Z" fill="#3308A8"/>
<path fill-rule="evenodd" clip-rule="evenodd" d="M294.048 1133.89C294.048 1133.89 326.504 1141.84 352.894 1139.3C379.284 1136.76 399.722 1125.9 410.196 1116.4C410.196 1116.4 413.451 1127.18 413.624 1132.36C413.624 1132.36 396.715 1148.2 358.958 1154.1C321.201 1160.01 300.678 1155.18 296.484 1150.73C296.187 1149.4 293.724 1137.1 294.048 1133.89Z" fill="#3308A8"/>
<path fill-rule="evenodd" clip-rule="evenodd" d="M301.878 1164.25C301.878 1164.25 314.833 1172.15 344.526 1168.44C374.208 1164.73 406.972 1153.73 413.715 1144.71C413.715 1144.71 413.107 1154.8 409.329 1161.38C409.329 1161.38 386.785 1171.94 361.161 1176.79C335.536 1181.64 316.231 1178.56 310.36 1176.98C310.36 1176.98 308.09 1174.62 305.159 1170.35C302.228 1166.09 301.867 1164.15 301.878 1164.25Z" fill="#3308A8"/>
<path fill-rule="evenodd" clip-rule="evenodd" d="M328.884 1190.59C328.884 1190.59 344.133 1192.07 361.44 1190.02C378.747 1187.96 393.106 1182.41 393.106 1182.41C393.106 1182.41 380.474 1193.07 362.968 1195.21C345.449 1197.34 331.612 1192.44 328.884 1190.59Z" fill="#3308A8"/>
<path d="M310.182 1092.83C335.342 1101.77 367.552 1097.3 388.282 1084.59" stroke="#16073A" stroke-width="2"/>
<path d="M300.811 1105.39C319.67 1119.41 385.127 1107.55 397.957 1093.22" stroke="#16073A" stroke-width="2" stroke-linecap="round"/>
<path d="M403.895 1101.03C404.165 1100.55 403.995 1099.94 403.513 1099.67C403.032 1099.4 402.422 1099.57 402.151 1100.05L403.895 1101.03ZM296.036 1115.02C301.676 1118.65 310.845 1120.29 321.339 1120.6C331.884 1120.91 343.949 1119.89 355.528 1118.06C367.108 1116.22 378.237 1113.57 386.911 1110.63C391.246 1109.15 394.993 1107.59 397.884 1106.01C400.731 1104.46 402.907 1102.79 403.895 1101.03L402.151 1100.05C401.458 1101.29 399.722 1102.73 396.924 1104.26C394.17 1105.76 390.541 1107.28 386.267 1108.73C377.724 1111.64 366.709 1114.26 355.216 1116.08C343.722 1117.9 331.785 1118.91 321.399 1118.6C310.962 1118.29 302.271 1116.66 297.12 1113.34L296.036 1115.02Z" fill="#16073A"/>
<path d="M408.42 1109.1C408.817 1108.71 408.827 1108.08 408.443 1107.68C408.059 1107.29 407.426 1107.28 407.029 1107.66L408.42 1109.1ZM293.928 1123.2C310.212 1132.59 333.009 1134.69 354.559 1131.67C376.103 1128.65 396.651 1120.49 408.42 1109.1L407.029 1107.66C395.678 1118.65 375.596 1126.7 354.281 1129.69C332.971 1132.67 310.68 1130.55 294.927 1121.47L293.928 1123.2Z" fill="#16073A"/>
<path d="M411.105 1116.93C411.521 1116.57 411.564 1115.94 411.201 1115.52C410.839 1115.11 410.207 1115.06 409.791 1115.43L411.105 1116.93ZM293.762 1134.85C338.894 1146.03 382.454 1141.91 411.105 1116.93L409.791 1115.43C381.838 1139.79 339.065 1144.01 294.243 1132.91L293.762 1134.85Z" fill="#16073A"/>
<path d="M414.461 1133.08C414.889 1132.73 414.951 1132.09 414.601 1131.67C414.251 1131.24 413.621 1131.18 413.193 1131.53L414.461 1133.08ZM295.926 1151.27C301.662 1154.95 310.184 1157.06 320.073 1157.85C329.987 1158.64 341.384 1158.1 352.958 1156.39C376.068 1152.98 400.082 1144.86 414.461 1133.08L413.193 1131.53C399.216 1142.99 375.614 1151.03 352.665 1154.42C341.21 1156.11 329.966 1156.63 320.231 1155.85C310.47 1155.08 302.334 1153 297.005 1149.58L295.926 1151.27Z" fill="#16073A"/>
<path d="M302.148 1164.55C329.73 1177.93 397.511 1162.21 413.503 1145" stroke="#16073A" stroke-width="2" stroke-linecap="round"/>
<path d="M310.914 1177.1C350.779 1184.77 376.307 1173.92 409.843 1160.85" stroke="#16073A" stroke-width="2" stroke-linecap="round"/>
<path d="M328.903 1190.45C363.892 1192.22 375.697 1188.79 394.392 1181.34" stroke="#16073A" stroke-width="2" stroke-linecap="round"/>
<path d="M413.711 1148.46C408.634 1180.3 376.097 1200.04 343.979 1194.92C309.258 1189.39 289.607 1154.08 294.718 1122.02C299.79 1090.2 334.633 1070.23 366.785 1075.35C382.722 1077.89 395.726 1088.12 404.122 1101.78C412.52 1115.44 416.261 1132.46 413.711 1148.46Z" stroke="#16073A" stroke-width="2"/>
<path d="M327.947 1080.93C345.171 1090.19 364.422 1086.74 374.474 1077.01" stroke="#16073A" stroke-width="2" stroke-linecap="round"/>
</g>
<path fill-rule="evenodd" clip-rule="evenodd" d="M331.222 64.7814C331.222 64.7814 386.635 68.0423 389.029 71.0198C391.415 74.013 374.72 84.3542 358.753 88.5259C358.753 88.5259 347.567 89.0352 337.037 86.8804C326.507 84.7256 320.068 84.1356 323.357 77.6395C326.646 71.1433 331.24 64.6034 331.222 64.7814Z" fill="#3308A8"/>
<path fill-rule="evenodd" clip-rule="evenodd" d="M452.919 68.7234C452.919 68.7234 455.452 79.0217 451.355 91.3893C451.355 91.3893 459.92 92.7666 462.696 88.5766C465.481 84.371 458.048 72.6712 452.919 68.7234Z" fill="#3308A8"/>
<path d="M348.192 39.1316C346.355 38.6793 344 36.3963 341.567 34.0679C339.374 31.9412 337.102 29.7691 335.76 29.3303C334.613 29.1719 326.996 28.1528 326.624 28.6516C326.032 29.4223 332.164 64.4226 332.174 64.5128C332.247 64.9325 332.141 65.3333 331.903 65.6366C331.681 65.949 321.829 79.2333 324.175 81.7845C325.452 83.1722 332.337 84.7336 339.76 85.8713C348.112 87.1462 356.948 87.7988 359.367 86.9912C361.627 86.2392 364.567 84.9989 367.183 83.8855C370.483 82.4957 373.281 81.3201 374.257 81.4845L374.338 81.4894C377.492 81.9881 454.932 94.0628 460.698 88.6192C461.027 88.305 461.284 87.8237 461.444 87.1819C461.998 84.8781 461.174 81.1073 458.074 76.5891C454.817 71.8335 449.108 66.4177 439.922 61.1353C423.052 51.4585 394.608 42.3817 348.517 39.1511C348.393 39.1843 348.28 39.1613 348.192 39.1316ZM343.583 31.9577C345.699 33.9984 347.762 35.987 348.812 36.278C395.331 39.5669 424.174 48.7897 441.358 58.6483C450.962 64.1513 456.992 69.9202 460.459 74.9652C464.084 80.2477 464.969 84.8936 464.252 87.8798C463.961 89.0756 463.422 90.0449 462.689 90.7337C455.87 97.1646 376.938 84.8375 373.865 84.3436L373.744 84.3363C373.606 84.3199 371.167 85.3461 368.31 86.5508C365.644 87.6774 362.62 88.9535 360.276 89.7411C357.443 90.6866 348.027 90.0563 339.303 88.7347C331.324 87.5065 323.773 85.6446 321.998 83.7384C318.397 79.8335 327.223 67.0902 329.161 64.3889C328.339 59.6329 323.026 28.4845 324.271 26.8737C325.686 25.0043 335.048 26.2746 336.154 26.4306C336.26 26.4288 336.373 26.4519 336.46 26.4816C338.525 27.0859 341.089 29.5524 343.583 31.9577Z" fill="#16073A"/>
<path d="M451.324 68.9777C451.034 68.2437 451.403 67.3864 452.137 67.0966C452.896 66.8002 453.728 67.1758 454.034 67.9189C454.513 69.161 455.288 74.9809 455.015 81.0148C454.861 84.8083 454.249 87.9393 452.98 91.047C452.674 91.7941 451.823 92.142 451.076 91.8366C450.328 91.5312 449.981 90.6797 450.261 89.9392C451.387 87.1893 451.929 84.3962 452.076 80.8709C452.358 75.2203 451.734 70.012 451.324 68.9777Z" fill="#16073A"/>
<path d="M438.917 59.5689C439.022 58.769 439.748 58.2019 440.548 58.3069C441.348 58.4119 441.915 59.1381 441.81 59.938C440.995 66.1837 436.931 69.5878 431.867 70.6519C429.22 71.2015 426.288 71.0824 423.433 70.3573C420.609 69.6504 417.862 68.3373 415.512 66.5188C410.268 62.442 407.067 55.8087 409.71 47.4498C409.944 46.682 410.775 46.2597 411.534 46.5088C412.302 46.7421 412.724 47.5736 412.475 48.3323C410.273 55.309 412.929 60.8509 417.294 64.2317C419.309 65.794 421.701 66.9229 424.155 67.5425C426.578 68.1439 429.055 68.2519 431.274 67.7906C435.157 66.9896 438.287 64.368 438.917 59.5689Z" fill="#16073A"/>
<path d="M328.726 50.0558C329.524 50.2014 330.057 50.95 329.92 51.7317C329.784 52.5134 329.026 53.0623 328.245 52.9258L319.909 51.5135L320.118 68.5287L327.552 67.7209C328.355 67.6388 329.069 68.2191 329.16 69.0063C329.242 69.8093 328.662 70.5236 327.875 70.6147L318.9 71.5825C318.835 71.5868 318.769 71.591 318.704 71.5952C317.906 71.5961 317.244 70.962 317.227 70.1548L316.975 49.7984C316.98 49.7172 316.969 49.627 316.999 49.5392C317.135 48.7575 317.893 48.2086 318.675 48.3451L328.726 50.0558Z" fill="#16073A"/>
<path d="M374.797 84.1474C374.119 84.5953 373.227 84.3952 372.786 83.7417C372.354 83.0724 372.522 82.1624 373.191 81.7302C373.623 81.4549 374.495 81.0349 375.684 80.5037C379.702 78.6684 387.641 75.0245 388.145 72.0419C388.18 71.873 384.975 71.2815 380.169 70.4801C364.125 67.8071 332.229 66.3079 330.694 66.2402L330.654 66.2377C329.858 66.1981 329.223 65.5167 329.272 64.7053C329.312 63.9097 330.009 63.2838 330.789 63.3143L330.829 63.3168C332.364 63.3845 364.397 64.9 380.635 67.601C387.141 68.6918 391.364 70.2482 390.984 72.5054C390.233 77.0042 381.373 81.0813 376.869 83.1399C375.805 83.6379 375.01 83.9973 374.797 84.1474Z" fill="#16073A"/>
<path d="M389.982 55.5565C389.403 58.0135 390.076 59.829 391.32 60.946C391.915 61.4785 392.648 61.8807 393.431 62.1232C394.215 62.3657 395.048 62.4483 395.86 62.3504C397.566 62.1596 399.146 61.2041 399.832 59.3968L399.86 59.3496C400.761 56.9526 400.055 55.0129 398.672 53.7736C398.007 53.1799 397.179 52.7231 396.317 52.4352L396.229 52.4055C395.405 52.1606 394.515 52.0665 393.694 52.1801C391.996 52.3957 390.476 53.4282 389.982 55.5565ZM389.373 63.1174C387.388 61.3208 386.278 58.5181 387.149 54.8653C387.978 51.3565 390.509 49.6274 393.331 49.2838C394.569 49.1382 395.865 49.2567 397.08 49.6228L397.209 49.655C398.472 50.0484 399.646 50.7051 400.627 51.5864C402.836 53.5757 403.979 56.6491 402.583 60.3762L402.556 60.4234C401.418 63.3762 398.906 64.9273 396.193 65.2286C394.979 65.3675 393.724 65.2514 392.564 64.8968C391.396 64.5579 390.292 63.9624 389.373 63.1174Z" fill="#16073A"/>
<path d="M370.403 53.2984C369.824 55.7554 370.497 57.571 371.756 58.6971C372.367 59.2386 373.085 59.6318 373.868 59.8742C374.652 60.1167 375.494 60.1836 376.297 60.1015C378.003 59.9107 379.583 58.9551 380.269 57.1478L380.281 57.0915C381.182 54.6946 380.476 52.7548 379.102 51.4998C378.437 50.9062 377.61 50.4493 376.738 50.1772L376.635 50.1384C375.811 49.8935 374.921 49.7994 374.084 49.9038C372.417 50.1376 370.913 51.1793 370.403 53.2984ZM369.795 60.8593C367.81 59.0627 366.699 56.26 367.57 52.6072C368.4 49.0985 370.93 47.3693 373.752 47.0257C374.99 46.8802 376.286 46.9987 377.502 47.3648L377.63 47.3969C378.893 47.7903 380.067 48.4471 381.048 49.3284C383.258 51.3176 384.4 54.391 382.988 58.1091L382.977 58.1654C381.848 61.1024 379.327 62.6693 376.614 62.9705C375.4 63.1094 374.145 62.9934 372.986 62.6388C371.817 62.2999 370.713 61.7043 369.795 60.8593Z" fill="#16073A"/>
<path d="M349.323 50.95C348.744 53.407 349.433 55.2317 350.677 56.3486C351.272 56.8811 352.005 57.2834 352.788 57.5259C353.572 57.7683 354.415 57.8352 355.218 57.7531C356.923 57.5623 358.503 56.6067 359.189 54.7994L359.217 54.7522C360.118 52.3552 359.412 50.4155 358.029 49.1762C357.364 48.5826 356.536 48.1258 355.674 47.8379L355.586 47.8081C354.747 47.5542 353.872 47.4691 353.035 47.5736C351.337 47.7892 349.833 48.8308 349.323 50.95ZM348.715 58.5109C346.73 56.7143 345.62 53.9116 346.49 50.2588C347.32 46.7501 349.85 45.0209 352.672 44.6773C353.91 44.5317 355.206 44.6502 356.422 45.0164L356.55 45.0485C357.797 45.4328 358.987 46.0987 359.968 46.98C362.178 48.9692 363.321 52.0426 361.909 55.7606L361.897 55.817C360.759 58.7697 358.232 60.3117 355.534 60.6221C354.32 60.761 353.065 60.645 351.906 60.2904C350.737 59.9515 349.633 59.3559 348.715 58.5109Z" fill="#16073A"/>
<path d="M320.784 50.5074C320.743 49.7069 321.37 49.0199 322.171 48.9783C322.971 48.9368 323.658 49.5643 323.7 50.3648C323.697 50.4054 324.324 65.6053 323.544 70.0454C323.399 70.8428 322.65 71.376 321.853 71.2304C321.055 71.0849 320.538 70.3453 320.684 69.5479C321.405 65.3894 320.791 50.5322 320.784 50.5074Z" fill="#16073A"/>
<path d="M324.53 51.1801C324.464 50.3862 325.06 49.681 325.863 49.5989C326.657 49.5326 327.378 50.1377 327.444 50.9316C327.451 50.9564 328.511 62.461 326.77 69.7666C326.592 70.5459 325.79 71.027 325.011 70.8499C324.231 70.6729 323.75 69.8704 323.927 69.0912C325.558 62.2675 324.528 51.2207 324.53 51.1801Z" fill="#16073A"/>
<defs>
<clipPath id="clip0_42_474">
<rect width="147.287" height="148.005" fill="white" transform="translate(271 1066.25) rotate(-5.94159)"/>
</clipPath>
</defs>
</svg>
