<svg width="45" height="61" fill="none" xmlns="http://www.w3.org/2000/svg"><g clip-path="url(#clip0_42_529)"><path d="M40.414 60.106H4.586a3.574 3.574 0 01-3.575-3.574V4.468c0-1.974 1.6-3.574 3.575-3.574h24.72L43.99 15.575v40.957c0 1.974-1.6 3.574-3.575 3.574z" fill="#F4F2F9"/><path d="M40.414 15.575v40.957c0 1.974-1.6 3.574-3.574 3.574h3.574c1.974 0 3.575-1.6 3.575-3.574V15.575h-3.575z" fill="#F4F2F9"/><path d="M33.703 12.986H7.723a1.191 1.191 0 01-1.192-1.191V7.446c0-.658.534-1.191 1.192-1.191h25.98c.658 0 1.192.533 1.192 1.191v4.349c0 .658-.534 1.191-1.192 1.191z" fill="#D4C5F9"/><path d="M43.989 19.15H32.88a3.574 3.574 0 01-3.574-3.574V4.467L43.989 19.15z" fill="#F4F2F9"/><path d="M43.989 15.575H32.88a3.574 3.574 0 01-3.574-3.574V.894l14.682 14.681z" fill="#D4C5F9"/><path d="M13.799 27.134H7.365a.834.834 0 01-.834-.834v-6.433c0-.46.374-.834.834-.834H13.8c.46 0 .834.373.834.834V26.3c0 .46-.374.834-.834.834zM13.799 40.597H7.365a.834.834 0 01-.834-.834V33.33c0-.461.374-.834.834-.834H13.8c.46 0 .834.373.834.834v6.433c0 .46-.374.834-.834.834zM13.799 54.06H7.365a.834.834 0 01-.834-.834v-6.434c0-.46.374-.834.834-.834H13.8c.46 0 .834.374.834.834v6.434c0 .46-.374.834-.834.834z" fill="#3308A8"/><path d="M37.997 35.176H19.994a.893.893 0 100 1.787h18.003a.893.893 0 100-1.787zm0 13.463H19.994a.893.893 0 100 1.787h18.003a.893.893 0 100-1.787zm0-3.574H19.994a.893.893 0 100 1.787h18.003a.893.893 0 100-1.787zm0-13.463H19.994a.893.893 0 100 1.787h18.003a.893.893 0 100-1.787zm5.992 3.213c.493 0 .893-.4.893-.894V15.575a.907.907 0 00-.261-.631L29.938.262C29.79.128 29.602 0 29.307 0H4.586A4.473 4.473 0 00.118 4.468v52.064A4.473 4.473 0 004.586 61h35.828a4.473 4.473 0 004.468-4.468V38.091a.893.893 0 10-1.787 0v18.441a2.684 2.684 0 01-2.68 2.68H4.584a2.684 2.684 0 01-2.68-2.68V4.468a2.684 2.684 0 012.68-2.68h23.828V5.36H7.723c-1.15 0-2.085.936-2.085 2.085v4.349c0 1.15.935 2.085 2.085 2.085h17.592a.894.894 0 100-1.787H7.723a.298.298 0 01-.298-.298V7.446c0-.164.134-.298.298-.298h20.69v4.853a4.473 4.473 0 004.468 4.468h10.214v17.452c0 .494.4.894.894.894zM32.88 14.682a2.684 2.684 0 01-2.68-2.68V3.05l11.63 11.63h-8.95zM13.799 45.065H7.365a1.73 1.73 0 00-1.727 1.727v6.434a1.73 1.73 0 001.727 1.728H13.8a1.73 1.73 0 001.727-1.728v-6.434a1.73 1.73 0 00-1.727-1.727zm-.06 8.102H7.425v-6.315h6.314v6.315zm1.787-33.3a1.73 1.73 0 00-1.727-1.728H7.365a1.73 1.73 0 00-1.727 1.728V26.3a1.73 1.73 0 001.727 1.728H13.8a1.73 1.73 0 001.727-1.728v-6.433zM13.74 26.24H7.425v-6.315h6.314v6.315zm24.258-8.102H19.994a.893.893 0 100 1.787h18.003a.893.893 0 100-1.787zm0 3.574H19.994a.893.893 0 100 1.787h18.003a.893.893 0 100-1.787zM15.527 33.33a1.73 1.73 0 00-1.728-1.728H7.365a1.73 1.73 0 00-1.727 1.728v6.433a1.73 1.73 0 001.727 1.728H13.8a1.73 1.73 0 001.727-1.728V33.33zm-1.788 6.374H7.425v-6.315h6.314v6.315z" fill="#16073A"/></g><defs><clipPath id="clip0_42_529"><path fill="#fff" d="M0 0h45v61H0z"/></clipPath></defs></svg>