<svg width="36" height="62" fill="none" xmlns="http://www.w3.org/2000/svg"><g clip-path="url(#clip0_42_513)"><path d="M35 5v49L1 50.388V8.612L35 5z" fill="#3308A8"/><path d="M31.32 50.193l-3.633 10.899h3.633a3.643 3.643 0 003.633-3.633v-7.266H31.32zM31.32.908h-3.633l3.633 7.266h3.633V4.54A3.643 3.643 0 0031.32.908z" fill="#D4C5F9"/><path d="M31.32 50.193v7.266a3.644 3.644 0 01-3.633 3.633H4.68a3.644 3.644 0 01-3.633-3.633v-7.266H31.32zM31.32 4.541v3.633H1.047V4.54A3.643 3.643 0 014.68.908h23.008a3.644 3.644 0 013.632 3.633z" fill="#F4F2F9"/><path d="M18 57.459a1.816 1.816 0 100-3.633 1.816 1.816 0 000 3.633z" fill="#F4F2F9"/><path d="M31.32 0H4.68A4.546 4.546 0 00.139 4.541v52.918A4.546 4.546 0 004.679 62H31.32a4.546 4.546 0 004.541-4.541V4.541A4.546 4.546 0 0031.321 0zM4.68 1.816h26.64a2.728 2.728 0 012.725 2.725v2.725H1.955V4.54A2.728 2.728 0 014.68 1.816zm26.64 58.368H4.68a2.728 2.728 0 01-2.725-2.725v-6.357H4.68a.908.908 0 000-1.817H1.955V9.082h32.09v40.203H8.312a.908.908 0 000 1.817h25.733v6.357a2.728 2.728 0 01-2.725 2.725z" fill="#16073A"/><path d="M18 5.45h3.633a.908.908 0 000-1.817H18a.908.908 0 000 1.816zM18 52.918a2.728 2.728 0 00-2.725 2.725A2.728 2.728 0 0018 58.367a2.728 2.728 0 002.725-2.724A2.728 2.728 0 0018 52.918zm0 3.633a.91.91 0 010-1.817.91.91 0 010 1.817zM14.367 5.45a.908.908 0 100-1.817.908.908 0 000 1.816z" fill="#16073A"/></g><defs><clipPath id="clip0_42_513"><path fill="#fff" d="M0 0h36v62H0z"/></clipPath></defs></svg>