<svg width="71" height="52" fill="none" xmlns="http://www.w3.org/2000/svg"><g clip-path="url(#clip0_42_544)"><path d="M69.96 11.368H1.04V5.515c0-2.309 1.863-4.18 4.16-4.18h60.6c2.297 0 4.16 1.871 4.16 4.18v5.853z" fill="#3308A8"/><path d="M65.8 50.666H5.2c-2.297 0-4.16-1.872-4.16-4.181V11.368h68.92v35.117c0 2.309-1.862 4.18-4.16 4.18z" fill="#F4F2F9"/><path d="M65.8 11.368v39.297c2.297 0 4.16-1.871 4.16-4.18V11.368H65.8z" fill="#D4C5F9"/><path d="M53.042 23.055h-6.518a2.085 2.085 0 01-2.08-2.09c0-1.155.932-2.09 2.08-2.09h6.518c1.149 0 2.08.935 2.08 2.09 0 1.154-.931 2.09-2.08 2.09zM63.72 31.416H46.524a2.085 2.085 0 01-2.08-2.09c0-1.154.932-2.09 2.08-2.09H63.72c1.148 0 2.08.936 2.08 2.09s-.931 2.09-2.08 2.09zM58.612 39.778H46.524a2.085 2.085 0 01-2.08-2.09c0-1.155.932-2.091 2.08-2.091h12.088c1.148 0 2.08.936 2.08 2.09 0 1.155-.931 2.09-2.08 2.09z" fill="#3308A8"/><path d="M65.8.29h-3.642c-.574 0-1.04.467-1.04 1.044 0 .578.466 1.046 1.04 1.046H65.8c1.72 0 3.12 1.406 3.12 3.135v4.808H2.08V5.515c0-1.729 1.4-3.135 3.12-3.135h52.392c.574 0 1.04-.468 1.04-1.046 0-.577-.466-1.045-1.04-1.045H5.2C2.333.29 0 2.634 0 5.515v11.522c0 .577.466 1.045 1.04 1.045.574 0 1.04-.468 1.04-1.045v-4.624h66.84v26.946c0 .578.465 1.045 1.04 1.045S71 39.936 71 39.36V5.515C71 2.634 68.667.29 65.8.29zM69.96 42.722c-.575 0-1.04.467-1.04 1.045v2.718c0 1.729-1.4 3.135-3.12 3.135H5.2a3.131 3.131 0 01-3.12-3.135V21.522c0-.577-.466-1.045-1.04-1.045-.574 0-1.04.468-1.04 1.045v24.963c0 2.882 2.333 5.226 5.2 5.226h60.6c2.867 0 5.2-2.344 5.2-5.226v-2.718c0-.578-.466-1.045-1.04-1.045z" fill="#16073A"/><path d="M15.043 22.998a1.037 1.037 0 00-1.47 0l-6.25 6.28a1.047 1.047 0 000 1.479l6.167 6.197a1.034 1.034 0 001.47 0 1.049 1.049 0 000-1.478L9.53 30.018l5.514-5.542a1.049 1.049 0 000-1.478zM29.03 36.954a1.034 1.034 0 001.47 0l6.168-6.197a1.048 1.048 0 000-1.479l-6.25-6.28a1.037 1.037 0 00-1.47 0 1.049 1.049 0 000 1.478l5.514 5.541-5.432 5.459a1.049 1.049 0 000 1.478zM18.303 40.804c.42 0 .815-.257.973-.675l7.39-19.565a1.047 1.047 0 00-.603-1.348 1.038 1.038 0 00-1.341.607l-7.39 19.565a1.047 1.047 0 00.971 1.416zM46.524 24.1h6.518c1.72 0 3.12-1.406 3.12-3.135 0-1.729-1.4-3.136-3.12-3.136h-6.518a3.132 3.132 0 00-3.12 3.136c0 1.729 1.4 3.135 3.12 3.135zm0-4.18h6.518c.573 0 1.04.468 1.04 1.045 0 .576-.467 1.045-1.04 1.045h-6.518c-.573 0-1.04-.469-1.04-1.045 0-.577.467-1.045 1.04-1.045zM46.524 32.462H63.72c1.72 0 3.12-1.407 3.12-3.136s-1.4-3.135-3.12-3.135H46.524a3.131 3.131 0 00-3.12 3.135c0 1.729 1.4 3.136 3.12 3.136zm0-4.181H63.72c.573 0 1.04.469 1.04 1.045s-.467 1.045-1.04 1.045H46.524c-.573 0-1.04-.468-1.04-1.045 0-.576.467-1.045 1.04-1.045zM46.524 40.823h12.088c1.72 0 3.12-1.407 3.12-3.136s-1.4-3.135-3.12-3.135H46.524a3.131 3.131 0 00-3.12 3.135c0 1.729 1.4 3.136 3.12 3.136zm0-4.18h12.088a1.044 1.044 0 010 2.09H46.524c-.573 0-1.04-.47-1.04-1.046 0-.576.467-1.045 1.04-1.045z" fill="#16073A"/></g><defs><clipPath id="clip0_42_544"><path fill="#fff" d="M0 0h71v52H0z"/></clipPath></defs></svg>