<svg width="668" height="13" fill="none" xmlns="http://www.w3.org/2000/svg"><path d="M124.002 11.618c-10.444-1.12-72.397.4-83.726.64-6.55.16-12.568.321-17.878.401-10.62.24-18.41.4-20.18.32-6.372-.56 2.479-6.925 7.789-8.686 1.947-.64 4.248-.8 9.382-.56 2.124.08 10.266 0 21.418-.24 15.577-.24 13.984-.24 93.638-1.681 1.417.32 5.665-.88 6.373-.48.708.24 11.86.24 28.676.08.885 0 104.082-1.041 161.433-1.281 9.028-.08 1.77.64 12.391.4 22.657-.48 71.512.24 88.505-.24 13.63-.4 16.639-.4 29.561.08 6.727.24 27.791.4 48.147.4 20.356 0 40.181 0 44.253-.4 1.947-.16 3.54-.08 3.54.16 0 0 .708 0 2.124.08 1.416.08 36.287.72 45.846.96 1.416.08 2.124.08 2.301.08.354.24 1.947.4 3.363.24 2.655-.24 55.935-.16 56.644.56 2.301 2.162-5.842 5.806-12.214 7.887-3.363 1.04-13.453.8-26.375.4-40.181-1.28-21.949-.24-62.662-.72-119.659-1.52-113.109-.96-137.183-.4-3.186-.8-15.4.96-22.834-.32-3.009-.56-25.136-.72-30.092-.16-2.124.24-31.331 0-61.6-.08-30.269-.08-61.245.16-67.087.88-23.896-1.28-113.995 1.44-123.553 1.68z" fill="#3308A8"/></svg>