<svg width="319" height="13" fill="none" xmlns="http://www.w3.org/2000/svg"><path d="M59.216 11.618c-4.987-1.12-34.573.4-39.983.64-3.127.16-6.001.321-8.537.401-5.072.24-8.791.4-9.637.32-3.043-.56 1.184-6.925 3.72-8.686.93-.64 2.029-.8 4.48-.56 1.014.08 4.903 0 10.228-.24 7.439-.24 6.678-.24 44.717-1.681.676.32 2.705-.88 3.043-.48.338.24 5.663.24 13.694.08.422 0 49.704-1.041 77.092-1.281 4.311-.08.845.64 5.917.4 10.82-.48 34.15.24 42.265-.24 6.509-.4 7.946-.4 14.117.08 3.212.24 13.271.4 22.992.4s19.188 0 21.133-.4c.929-.16 1.69-.08 1.69.16 0 0 .338 0 1.015.08.676.08 17.328.72 21.893.96.676.08 1.014.08 1.099.08.169.24.93.4 1.606.24 1.268-.24 26.712-.16 27.05.56 1.099 2.162-2.79 5.806-5.833 7.887-1.606 1.04-6.424.8-12.595.4-19.188-1.28-10.482-.24-29.924-.72-57.142-1.52-54.015-.96-65.511-.4-1.521-.8-7.354.96-10.904-.32-1.437-.56-12.004-.72-14.371-.16-1.014.24-14.961 0-29.416-.08s-29.248.16-32.037.88c-11.412-1.28-54.438 1.44-59.003 1.68z" fill="#3308A8"/></svg>